<?xml version="1.0" encoding="UTF-8" standalone="no"?>
<svg width="66px" height="87px" viewBox="0 0 66 87" version="1.1" xmlns="http://www.w3.org/2000/svg" xmlns:xlink="http://www.w3.org/1999/xlink" xmlns:sketch="http://www.bohemiancoding.com/sketch/ns">
    <!-- Generator: Sketch 3.2 (9961) - http://www.bohemiancoding.com/sketch -->
    <title>Slice 1</title>
    <desc>Created with Sketch.</desc>
    <defs>
        <linearGradient x1="19.7561414%" y1="70.4902476%" x2="91.1630836%" y2="9.33191473%" id="linearGradient-1">
            <stop stop-color="#4FCCE2" offset="0%"></stop>
            <stop stop-color="#E9ECC3" offset="100%"></stop>
        </linearGradient>
    </defs>
    <g id="Page-1" stroke="none" stroke-width="1" fill="none" fill-rule="evenodd" sketch:type="MSPage">
        <g id="Imported-Layers" sketch:type="MSLayerGroup" fill="url(#linearGradient-1)">
            <path d="M24.9884489,76.2320915 C24.2413922,76.2320915 23.6301639,75.6304205 23.6301639,74.8881721 C23.6301639,74.1459237 24.2413922,73.5442527 24.9884489,73.5442527 L40.6992787,73.5442527 C41.4463354,73.5442527 42.0462446,74.1459237 42.0462446,74.8881721 C42.0462446,75.6304205 41.4463354,76.2320915 40.6992787,76.2320915 L24.9884489,76.2320915 Z M26.7315813,81.5571612 C25.9845246,81.5571612 25.3789559,80.9554902 25.3789559,80.2132418 C25.3789559,79.4709935 25.9845246,78.8749455 26.7315813,78.8749455 L38.9504868,78.8749455 C39.6975435,78.8749455 40.3087718,79.4709935 40.3087718,80.2132418 C40.3087718,80.9554902 39.6975435,81.5571612 38.9504868,81.5571612 L26.7315813,81.5571612 Z M34.1964893,7.48977124 C34.1964893,8.23201961 33.585261,8.83369063 32.8438638,8.83369063 C32.1024666,8.83369063 31.4912383,8.23201961 31.4912383,7.48977124 L31.4912383,2.28840959 C31.4912383,1.54616122 32.1024666,0.944490196 32.8438638,0.944490196 C33.585261,0.944490196 34.1964893,1.54616122 34.1964893,2.28840959 L34.1964893,7.48977124 Z M49.8450643,21.8174139 C54.1972358,26.141573 56.8855082,32.1132985 56.8855082,38.7148105 C56.8855082,41.2901874 56.4723632,43.7812179 55.7083279,46.1148017 C54.915995,48.532732 53.7444741,50.7819695 52.2673392,52.795037 C49.7884691,56.1688932 47.7736797,58.3787691 46.2059924,60.0994357 C43.3988701,63.1921373 42.1650946,64.5473028 42.1650946,69.0682702 C42.1650946,69.8048954 41.5538663,70.4121895 40.8124691,70.4121895 L24.9884489,70.4121895 C24.2413922,70.4121895 23.6301639,69.8048954 23.6301639,69.0682702 C23.6301639,64.5866645 22.3794098,63.2202527 19.5836066,60.178159 L19.577947,60.178159 C17.9989407,58.4631155 15.9671728,56.2476166 13.4260479,52.795037 C11.9432535,50.7819695 10.7717327,48.532732 9.97374023,46.1148017 C9.21536444,43.7812179 8.79090038,41.2901874 8.79090038,38.7148105 C8.79090038,35.4815316 9.44740479,32.3944532 10.6245851,29.5772832 L10.6472232,29.5210523 C11.8696797,26.6139129 13.6467692,23.9935512 15.8370038,21.8174139 C18.0498764,19.6187843 20.6985322,17.8475098 23.6471425,16.6329216 C26.4825624,15.4633181 29.5952989,14.8166623 32.8438638,14.8166623 C36.0867692,14.8166623 39.1881866,15.4633181 42.0292661,16.6329216 C44.9835359,17.8475098 47.6435107,19.6187843 49.8450643,21.8174139 Z M54.1859168,38.7148105 C54.1859168,32.8555468 51.797599,27.5529695 47.9321463,23.7180196 C45.962633,21.7555599 43.6082724,20.1754706 41.0105523,19.1070828 C38.4977251,18.0780566 35.7415385,17.5101242 32.8438638,17.5101242 C29.9461892,17.5101242 27.184343,18.0780566 24.6828348,19.1070828 L24.6771753,19.1070828 C22.0737957,20.1754706 19.7307541,21.7555599 17.7499218,23.7180196 C15.7973871,25.66361 14.2183808,27.9747015 13.1430719,30.5332092 L13.1091148,30.6063094 C12.0734224,33.0917168 11.5018108,35.8301634 11.5018108,38.7148105 C11.5018108,41.0090327 11.8696797,43.2245316 12.5431627,45.288207 C13.2506028,47.4362288 14.2862951,49.432427 15.5936444,51.2093246 C18.0385574,54.532573 20.0307087,56.691841 21.5700984,58.3787691 C24.5753039,61.6457865 26.0694174,63.2764837 26.3071173,67.7243508 L39.4881412,67.7243508 C39.7201816,63.2427451 41.191657,61.6289172 44.2138411,58.3056688 C45.7192736,56.6524793 47.6661488,54.5157037 50.0884237,51.2093246 C51.4014325,49.432427 52.4371248,47.4362288 53.1389054,45.288207 C53.8123884,43.2301547 54.1859168,41.0146558 54.1859168,38.7148105 Z M28.4803733,86.887854 C27.7333165,86.887854 27.1277478,86.286183 27.1277478,85.5439346 C27.1277478,84.8016863 27.7333165,84.2000153 28.4803733,84.2000153 L37.2073544,84.2000153 C37.9544111,84.2000153 38.5599798,84.8016863 38.5599798,85.5439346 C38.5599798,86.286183 37.9544111,86.887854 37.2073544,86.887854 L28.4803733,86.887854 Z M49.4262598,12.2581547 C49.0583909,12.8991874 48.2321009,13.118488 47.5869155,12.7529869 C46.9473897,12.3874858 46.7266683,11.5665142 47.0945372,10.9311046 L49.7092358,6.42138344 C50.0771047,5.78597386 50.9033947,5.56105011 51.5485801,5.9265512 C52.1881059,6.29767538 52.4088272,7.11302397 52.0409584,7.75405664 L49.4262598,12.2581547 Z M18.5931904,10.9311046 C18.9610593,11.5665142 18.740338,12.3874858 18.1008121,12.7529869 C17.4556267,13.118488 16.6293367,12.8991874 16.2614678,12.2581547 L13.6411097,7.75405664 C13.2732409,7.11302397 13.4939622,6.29767538 14.1391475,5.9265512 C14.7843329,5.56105011 15.6049634,5.78597386 15.9784918,6.42138344 L18.5931904,10.9311046 Z M6.81572762,21.6487211 C7.46091299,22.0142222 7.6816343,22.8351939 7.31376545,23.4762266 C6.94023707,24.1116362 6.11960656,24.3309368 5.47442119,23.9654357 L0.941145019,21.3675664 C0.290300126,20.9964423 0.0695788146,20.1810937 0.443107188,19.540061 C0.80531652,18.8990283 1.63726608,18.6797277 2.27679193,19.0452288 L6.81572762,21.6487211 Z M60.2133064,23.9654357 C59.5681211,24.3309368 58.741831,24.1116362 58.3739622,23.4762266 C58.0060933,22.8351939 58.2268146,22.0142222 58.872,21.6487211 L63.4052762,19.0452288 C64.0504615,18.6797277 64.8710921,18.8990283 65.2446204,19.540061 C65.6068298,20.1810937 65.3861084,20.9964423 64.7465826,21.3675664 L60.2133064,23.9654357 Z M18.8025927,32.2257603 C18.5139571,32.9061547 17.7216242,33.226671 17.0368222,32.9398932 C16.3520202,32.6531155 16.035087,31.8715054 16.3180631,31.1911111 C16.7708247,30.1227233 17.3254578,29.1105664 17.9593241,28.1771329 L17.9649836,28.1715098 L17.9593241,28.1715098 C18.6158285,27.2155839 19.3572257,26.321512 20.1608777,25.5174096 C20.9645296,24.7245534 21.8530744,23.9935512 22.8321715,23.3412723 L22.826512,23.3412723 C23.7659924,22.7114858 24.7847062,22.1660458 25.8656747,21.7105752 C26.9466431,21.2494815 28.0898663,20.9008497 29.2727062,20.6590566 C30.444227,20.4285098 31.6440454,20.3048017 32.8438638,20.3048017 C33.585261,20.3048017 34.1964893,20.9064728 34.1964893,21.643098 C34.1964893,22.3853464 33.585261,22.9870174 32.8438638,22.9870174 C31.7855334,22.9870174 30.7668197,23.0938562 29.8047011,23.2850414 C28.802966,23.4818497 27.8295284,23.7854967 26.9070265,24.1734902 C26.0184817,24.5446144 25.152575,25.0169542 24.3319445,25.5623943 C23.5339521,26.0965882 22.7755763,26.7207516 22.0737957,27.4180153 C21.3776747,28.1096558 20.7494678,28.8743965 20.2004943,29.6728758 C19.6515208,30.4769782 19.1817806,31.3373115 18.8025927,32.2257603 L18.8025927,32.2257603 Z" id="Fill-1" sketch:type="MSShapeGroup"></path>
        </g>
    </g>
</svg>