<?xml version="1.0" encoding="utf-8"?>
<!-- Generator: Adobe Illustrator 16.0.4, SVG Export Plug-In . SVG Version: 6.00 Build 0)  -->
<!DOCTYPE svg PUBLIC "-//W3C//DTD SVG 1.1//EN" "http://www.w3.org/Graphics/SVG/1.1/DTD/svg11.dtd">
<svg version="1.1" id="Layer_1" xmlns="http://www.w3.org/2000/svg" xmlns:xlink="http://www.w3.org/1999/xlink" x="0px" y="0px"
	 width="94px" height="94px" viewBox="0 0 94 94" enable-background="new 0 0 94 94" xml:space="preserve">
<g>
	<g>
		<path fill-rule="evenodd" clip-rule="evenodd" fill="#FFFFFF" d="M46.994,0.48c-25.695,0-46.525,20.831-46.525,46.525
			c0,25.694,20.831,46.525,46.525,46.525c25.694,0,46.525-20.831,46.525-46.525C93.52,21.311,72.688,0.48,46.994,0.48z
			 M46.994,90.625c-24.089,0-43.617-19.529-43.617-43.617c0-24.091,19.528-43.619,43.617-43.619
			c24.09,0,43.618,19.528,43.618,43.619C90.612,71.096,71.084,90.625,46.994,90.625z M65.57,26.372L46.994,44.949L28.417,26.372
			l-2.058,2.055l18.578,18.578L26.359,65.584l2.056,2.057l18.579-18.578l18.578,18.578l2.057-2.057L49.051,47.006l18.578-18.579
			L65.57,26.372z"/>
	</g>
</g>
</svg>
