<?xml version="1.0" encoding="utf-8"?>
<!-- Generator: Adobe Illustrator 16.0.4, SVG Export Plug-In . SVG Version: 6.00 Build 0)  -->
<!DOCTYPE svg PUBLIC "-//W3C//DTD SVG 1.1//EN" "http://www.w3.org/Graphics/SVG/1.1/DTD/svg11.dtd">
<svg version="1.1" id="Layer_1" xmlns="http://www.w3.org/2000/svg" xmlns:xlink="http://www.w3.org/1999/xlink" x="0px" y="0px"
	 width="28.15px" height="30px" viewBox="0 0 28.15 30" enable-background="new 0 0 28.15 30" xml:space="preserve">
<path fill="#FFFFFF" d="M26.406,11.606c-0.905-0.905-2.107-1.403-3.388-1.403c-1.279,0-2.482,0.498-3.387,1.403
	c-0.15,0.149-0.283,0.31-0.41,0.474L9.687,6.663c0.488-1.634,0.089-3.479-1.198-4.767C7.583,0.991,6.38,0.493,5.101,0.493
	S2.618,0.991,1.714,1.896c-1.868,1.868-1.868,4.907,0,6.775c0.904,0.905,2.107,1.403,3.387,1.403S7.583,9.575,8.488,8.67
	c0.216-0.216,0.404-0.449,0.57-0.693l9.465,5.378c-0.383,1.057-0.383,2.219,0,3.275l-9.464,5.39
	c-0.168-0.244-0.357-0.476-0.571-0.69c-0.905-0.904-2.107-1.403-3.388-1.403c-1.279,0-2.482,0.499-3.387,1.403
	c-0.906,0.905-1.404,2.107-1.404,3.388c0,1.279,0.498,2.481,1.404,3.387c0.904,0.904,2.107,1.403,3.387,1.403
	c1.28,0,2.482-0.499,3.388-1.403c0.904-0.905,1.402-2.107,1.402-3.387c0-0.476-0.069-0.939-0.201-1.383l9.532-5.429
	c0.127,0.164,0.26,0.324,0.41,0.475c0.904,0.904,2.107,1.403,3.387,1.403c1.28,0,2.483-0.499,3.388-1.403
	C28.273,16.513,28.273,13.474,26.406,11.606z M5.101,8.62c-0.891,0-1.729-0.347-2.359-0.977c-1.302-1.301-1.302-3.418,0-4.72
	c0.63-0.63,1.469-0.977,2.359-0.977c0.892,0,1.729,0.347,2.36,0.977c1.3,1.301,1.3,3.418,0,4.72C6.83,8.273,5.992,8.62,5.101,8.62z
	 M7.461,27.077c-0.631,0.63-1.469,0.978-2.36,0.978c-0.891,0-1.729-0.348-2.359-0.978c-0.631-0.631-0.979-1.469-0.979-2.359
	c0-0.892,0.348-1.729,0.979-2.359c0.63-0.631,1.469-0.979,2.359-0.979c0.892,0,1.729,0.348,2.36,0.979
	c0.63,0.63,0.977,1.468,0.977,2.359C8.438,25.608,8.091,26.446,7.461,27.077z M25.379,17.354c-0.631,0.63-1.469,0.978-2.36,0.978
	c-0.891,0-1.729-0.348-2.359-0.978c-1.301-1.302-1.301-3.419,0-4.72c0.631-0.63,1.469-0.978,2.359-0.978
	c0.892,0,1.729,0.348,2.36,0.978C26.68,13.935,26.68,16.052,25.379,17.354z"/>
</svg>
