<?xml version="1.0" encoding="utf-8"?>
<!-- Generator: Adobe Illustrator 16.0.4, SVG Export Plug-In . SVG Version: 6.00 Build 0)  -->
<!DOCTYPE svg PUBLIC "-//W3C//DTD SVG 1.1//EN" "http://www.w3.org/Graphics/SVG/1.1/DTD/svg11.dtd">
<svg version="1.1" id="Layer_1" xmlns="http://www.w3.org/2000/svg" xmlns:xlink="http://www.w3.org/1999/xlink" x="0px" y="0px"
	 width="31.168px" height="30px" viewBox="0 0 31.168 30" enable-background="new 0 0 31.168 30" xml:space="preserve">
<path fill="#FFFFFF" d="M18.729,19.766v-2.29c2.732-0.996,4.694-3.613,4.694-6.685V7.302c0-3.925-3.195-7.12-7.12-7.12h-1.431
	c-3.926,0-7.121,3.195-7.121,7.12v3.489c0,3.072,1.962,5.688,4.694,6.685v2.29c-4.343,1.009-12.17,3.382-12.07,6.326v2.805
	c0,0.432,0.35,0.781,0.781,0.781h13.898h1.066h13.896c0.431,0,0.781-0.35,0.781-0.781v-2.805
	C30.898,23.147,23.072,20.774,18.729,19.766z M9.315,10.791V7.302c0-3.064,2.492-5.557,5.558-5.557h1.431
	c3.063,0,5.557,2.493,5.557,5.557v3.489c0,3.063-2.493,5.556-5.557,5.556h-1.431C11.808,16.347,9.315,13.854,9.315,10.791z
	 M29.237,28.114H16.122h-1.066H1.939l-0.001-2.048c-0.039-1.149,4.9-3.444,11.461-4.914c0.356-0.079,0.609-0.397,0.609-0.763v-2.537
	c0.284,0.034,0.572,0.057,0.864,0.057h1.431c0.292,0,0.579-0.022,0.862-0.057v2.537c0,0.365,0.254,0.684,0.61,0.763
	c6.561,1.47,11.499,3.765,11.461,4.914V28.114z"/>
</svg>
