<?xml version="1.0" encoding="utf-8"?>
<!-- Generator: Adobe Illustrator 16.0.4, SVG Export Plug-In . SVG Version: 6.00 Build 0)  -->
<!DOCTYPE svg PUBLIC "-//W3C//DTD SVG 1.1//EN" "http://www.w3.org/Graphics/SVG/1.1/DTD/svg11.dtd">
<svg version="1.1" id="Layer_1" xmlns="http://www.w3.org/2000/svg" xmlns:xlink="http://www.w3.org/1999/xlink" x="0px" y="0px"
	 width="32.629px" height="30px" viewBox="0 0 32.629 30" enable-background="new 0 0 32.629 30" xml:space="preserve">
<g>
	<path fill="#FFFFFF" d="M32.071,3.846C32.07,3.845,32.07,3.845,32.07,3.844c-0.023-0.076-0.062-0.146-0.112-0.205
		c-0.055-0.066-0.12-0.118-0.193-0.153c-0.072-0.037-0.153-0.059-0.237-0.063c-0.014,0-0.024,0-0.041-0.001H16.271H1.055
		c-0.017,0.001-0.027,0-0.041,0.001C0.929,3.427,0.849,3.449,0.776,3.486C0.703,3.521,0.638,3.573,0.583,3.639
		c-0.05,0.06-0.089,0.129-0.112,0.205c0,0,0,0-0.001,0.001C0.45,3.907,0.441,3.97,0.442,4.033v22.6c0,0.335,0.271,0.605,0.604,0.605
		h15.224h15.223c0.335,0,0.605-0.271,0.605-0.605v-22.6C32.1,3.97,32.091,3.907,32.071,3.846z M16.271,4.632h13.393l-13.393,9.94
		L2.878,4.632H16.271z M30.889,26.028H16.271H1.652V5.229L15.91,15.812c0.106,0.079,0.232,0.114,0.36,0.115
		c0.128-0.001,0.254-0.036,0.36-0.115L30.889,5.229V26.028z"/>
	<path fill="#FFFFFF" d="M26.405,23.316c0.108,0.081,0.235,0.12,0.36,0.12c0.185,0,0.367-0.085,0.485-0.245
		c0.2-0.269,0.144-0.647-0.124-0.846l-6.89-4.977c-0.268-0.198-0.647-0.144-0.846,0.125c-0.2,0.269-0.144,0.647,0.125,0.847
		L26.405,23.316z"/>
	<path fill="#FFFFFF" d="M12.307,17.369l-6.886,4.977c-0.269,0.198-0.324,0.578-0.125,0.847c0.119,0.159,0.302,0.244,0.486,0.244
		c0.126,0,0.252-0.039,0.36-0.12l6.887-4.976c0.268-0.199,0.323-0.579,0.124-0.847C12.954,17.226,12.575,17.17,12.307,17.369z"/>
</g>
</svg>
