<?xml version="1.0" encoding="utf-8"?>
<!-- Generator: Adobe Illustrator 16.0.4, SVG Export Plug-In . SVG Version: 6.00 Build 0)  -->
<!DOCTYPE svg PUBLIC "-//W3C//DTD SVG 1.1//EN" "http://www.w3.org/Graphics/SVG/1.1/DTD/svg11.dtd">
<svg version="1.1" id="Layer_1" xmlns="http://www.w3.org/2000/svg" xmlns:xlink="http://www.w3.org/1999/xlink" x="0px" y="0px"
	 width="30px" height="30px" viewBox="0 0 30 30" enable-background="new 0 0 30 30" xml:space="preserve">
<g>
	<path fill="#FFFFFF" d="M24.338,4.924H0.961c-0.38,0-0.688,0.308-0.688,0.688v23.377c0,0.379,0.308,0.688,0.688,0.688h23.377
		c0.381,0,0.688-0.31,0.688-0.688V5.612C25.025,5.232,24.719,4.924,24.338,4.924z M23.649,28.302h-22V6.301h22V28.302z"/>
	<path fill="#FFFFFF" d="M29.108,0.375H5.733c-0.38,0-0.688,0.308-0.688,0.688v1.812c0,0.38,0.308,0.688,0.688,0.688
		c0.38,0,0.688-0.308,0.688-0.688V1.752h22v21.999h-1.345c-0.381,0-0.689,0.31-0.689,0.69c0,0.378,0.309,0.686,0.689,0.686h2.032
		c0.381,0,0.689-0.308,0.689-0.686V1.063C29.798,0.683,29.489,0.375,29.108,0.375z"/>
	<path fill="#FFFFFF" d="M5.04,17.984h6.352c0.259,0,0.47-0.21,0.47-0.471V9.819c0-0.259-0.211-0.47-0.47-0.47H5.04
		c-0.259,0-0.47,0.211-0.47,0.47v7.694C4.57,17.774,4.781,17.984,5.04,17.984z M5.51,10.289h5.413v6.756H5.51V10.289z"/>
	<path fill="#FFFFFF" d="M14.253,25.107h6.352c0.26,0,0.47-0.21,0.47-0.47V9.819c0-0.259-0.21-0.47-0.47-0.47h-6.352
		c-0.259,0-0.47,0.211-0.47,0.47v14.818C13.783,24.897,13.994,25.107,14.253,25.107z M14.723,10.289h5.413v13.88h-5.413V10.289z"/>
	<path fill="#FFFFFF" d="M5.012,20.896h6.38c0.259,0,0.47-0.21,0.47-0.47c0-0.259-0.211-0.469-0.47-0.469h-6.38
		c-0.259,0-0.47,0.21-0.47,0.469C4.542,20.687,4.753,20.896,5.012,20.896z"/>
	<path fill="#FFFFFF" d="M5.012,23.032h6.38c0.259,0,0.47-0.21,0.47-0.47c0-0.259-0.211-0.472-0.47-0.472h-6.38
		c-0.259,0-0.47,0.213-0.47,0.472C4.542,22.822,4.753,23.032,5.012,23.032z"/>
	<path fill="#FFFFFF" d="M5.012,25.166h6.38c0.259,0,0.47-0.21,0.47-0.47s-0.211-0.47-0.47-0.47h-6.38c-0.259,0-0.47,0.21-0.47,0.47
		S4.753,25.166,5.012,25.166z"/>
</g>
</svg>
