<?xml version="1.0" encoding="utf-8"?>
<!-- Generator: Adobe Illustrator 16.0.0, SVG Export Plug-In . SVG Version: 6.00 Build 0)  -->
<!DOCTYPE svg PUBLIC "-//W3C//DTD SVG 1.1//EN" "http://www.w3.org/Graphics/SVG/1.1/DTD/svg11.dtd">
<svg version="1.1" id="Layer_1" xmlns:sketch="http://www.bohemiancoding.com/sketch/ns"
	 xmlns="http://www.w3.org/2000/svg" xmlns:xlink="http://www.w3.org/1999/xlink" x="0px" y="0px" width="76px" height="76px"
	 viewBox="0 0 76 76" enable-background="new 0 0 76 76" xml:space="preserve">
<title>Artboard 1</title>
<desc>Created with Sketch.</desc>
<g id="Page-1" sketch:type="MSPage">
	<g id="Artboard-1" sketch:type="MSArtboardGroup">
		
			<linearGradient id="books_1_" gradientUnits="userSpaceOnUse" x1="-241.479" y1="233.9805" x2="-240.48" y2="234.5931" gradientTransform="matrix(70.9062 0 0 -72.2 17123.1289 16953.6367)">
			<stop  offset="0" style="stop-color:#4FCCE2"/>
			<stop  offset="1" style="stop-color:#E9ECC3"/>
		</linearGradient>
		<path id="books" sketch:type="MSShapeGroup" fill="url(#books_1_)" d="M72.335,43.338c-0.458,0-0.829,0.371-0.829,0.828v9.047
			L37.054,71.871L3.936,57.928v-9.612c0-0.458-0.372-0.829-0.829-0.829s-0.829,0.371-0.829,0.829v10.163
			c0,0.333,0.199,0.635,0.507,0.764l33.992,14.312c0.103,0.043,0.214,0.064,0.322,0.064c0.136,0,0.272-0.033,0.395-0.102
			l35.236-19.08c0.267-0.145,0.435-0.425,0.435-0.73v-9.541C73.164,43.709,72.793,43.338,72.335,43.338z M72.335,29.648
			c-0.458,0-0.829,0.371-0.829,0.829v9.048L37.054,58.182L3.936,44.238v-9.613c0-0.458-0.372-0.829-0.829-0.829
			s-0.829,0.372-0.829,0.829v10.164c0,0.332,0.199,0.635,0.507,0.764l33.992,14.312c0.103,0.044,0.214,0.065,0.322,0.065
			c0.136,0,0.272-0.033,0.395-0.1l35.236-19.082c0.267-0.145,0.435-0.425,0.435-0.73v-9.541
			C73.164,30.019,72.793,29.648,72.335,29.648z M72.335,15.915c-0.458,0-0.829,0.371-0.829,0.829v9.047L37.054,44.449L3.936,30.505
			v-8.816l32.099,12.309c0.844,0.323,2.179,0.224,2.965-0.222l33.355-18.891c0.785-0.446,0.732-1.058-0.12-1.36L38.585,1.59
			c-0.853-0.303-2.199-0.192-2.99,0.244L2.793,19.904c-0.478,0.262-0.615,0.587-0.494,0.879c-0.005,0.038-0.021,0.071-0.021,0.109
			v10.163c0,0.333,0.199,0.635,0.507,0.764l33.992,14.311c0.103,0.044,0.214,0.065,0.322,0.065c0.136,0,0.272-0.035,0.395-0.101
			l35.236-19.081c0.267-0.145,0.435-0.424,0.435-0.729v-9.541C73.164,16.286,72.793,15.915,72.335,15.915z M28.629,9.117
			l6.856-3.847c0.789-0.443,2.131-0.557,2.983-0.254l25.545,9.059c0.854,0.302,0.904,0.911,0.113,1.348l-7.781,4.328
			c-0.791,0.439-2.129,0.534-2.973,0.209l-24.643-9.45C27.886,10.186,27.84,9.559,28.629,9.117L28.629,9.117z"/>
	</g>
</g>
</svg>
