<?xml version="1.0" encoding="utf-8"?>
<!-- Generator: Adobe Illustrator 16.0.0, SVG Export Plug-In . SVG Version: 6.00 Build 0)  -->
<!DOCTYPE svg PUBLIC "-//W3C//DTD SVG 1.1//EN" "http://www.w3.org/Graphics/SVG/1.1/DTD/svg11.dtd">
<svg version="1.1" id="Layer_1" xmlns="http://www.w3.org/2000/svg" xmlns:xlink="http://www.w3.org/1999/xlink" x="0px" y="0px"
	 width="570px" height="400px" viewBox="0 0 570 400" enable-background="new 0 0 570 400" xml:space="preserve">
<g id="Layer_2" display="none">
	<rect y="-1.102" display="inline" fill="#282828" width="571.569" height="401.102"/>
</g>
<g id="Layer_1_1_">
	<g>
		<g>
			<g>
				<defs>
					<path id="SVGID_1_" d="M320.379,114.516c-4.011,0-7.22-3.208-7.22-7.32c0-3.811,3.209-7.02,7.22-7.02
						c4.112,0,7.32,3.309,7.32,7.02C327.699,111.307,324.391,114.516,320.379,114.516z M270.342,114.516
						c-4.011,0-7.32-3.208-7.32-7.219c0-4.012,3.309-7.32,7.32-7.32c4.011,0,7.22,3.309,7.22,7.32
						C277.461,111.307,274.253,114.516,270.342,114.516z M303.232,66.383c4.011,0,7.319,3.209,7.319,7.32
						c0,3.811-3.309,7.22-7.319,7.22s-7.02-3.309-7.02-7.22C296.112,69.593,299.222,66.383,303.232,66.383z M320.379,98.171
						c-4.512,0-8.222,3.71-9.024,8.123h-31.987c-0.101-1.705-0.803-3.31-1.906-4.613l20.056-21.158
						c1.604,1.504,3.609,2.307,5.814,2.307c4.914,0,9.025-4.111,9.025-8.925c0-5.014-4.111-9.125-9.025-9.125
						c-4.511,0-8.322,3.31-8.924,8.022h-27.876c-0.802-4.613-4.513-8.022-9.024-8.022c-4.914,0-9.025,4.011-9.025,9.125
						c0,4.914,4.111,8.925,9.025,8.925c4.813,0,8.624-3.71,9.024-8.323h27.776v-0.501c0,2.005,0.803,3.811,1.905,5.415
						l-20.055,21.259c-1.604-1.304-3.61-2.006-5.716-2.006c-5.014,0-8.924,4.012-8.924,8.925c0,4.914,3.81,9.125,8.924,9.125
						c4.613,0,8.624-3.61,8.925-8.223h31.987c0.502,4.613,4.213,8.123,9.024,8.123c5.015,0,9.025-4.011,9.025-9.025
						C329.404,102.282,325.394,98.171,320.379,98.171z M288.191,9.026c-45.325,0-82.226,36.801-82.226,82.125
						c0,45.325,36.901,82.126,82.226,82.126c45.324,0,82.226-36.801,82.226-82.126C370.417,45.828,333.717,9.026,288.191,9.026z
						 M288.191,174.982c-46.227,0-83.83-37.603-83.83-83.831c0-46.227,37.603-83.83,83.83-83.83c46.226,0,83.83,37.603,83.83,83.83
						C372.021,137.379,334.519,174.982,288.191,174.982z M201.152,229.131l-1.705,0.502c2.407,7.721,9.426,13.035,17.448,13.938
						l0.301-1.605C209.676,241.162,203.459,236.25,201.152,229.131z M220.104,247.883c-14.039,0-25.47-10.73-25.47-23.967
						c0-3.609,0.802-7.02,2.506-10.229l0,0l0.401-0.701c0.101-0.301,0.301-0.502,0.502-0.803l22.061-37.704l22.161,37.604
						c0.1,0.301,0.4,0.701,0.501,0.902l0.301,0.5c1.705,3.311,2.507,6.82,2.507,10.33
						C245.574,237.152,234.143,247.883,220.104,247.883z M244.672,212.785L244.672,212.785l-0.301-0.5
						c-0.3-0.402-0.401-0.803-0.702-1.104l-23.765-40.211l-23.665,40.412c-0.1,0.299-0.401,0.5-0.501,0.902l-0.401,0.801v-0.1
						c-1.705,3.309-2.808,7.02-2.808,11.029c0,14.039,12.233,25.471,27.375,25.471c15.141,0,27.375-11.432,27.375-25.471
						C247.479,220.006,246.376,216.295,244.672,212.785z M219.102,128.855c-45.325,0-82.226,36.801-82.226,82.125
						s36.901,82.125,82.226,82.125c45.324,0,82.226-36.801,82.226-82.125C301.228,165.656,264.426,128.855,219.102,128.855z
						 M219.102,294.811c-46.227,0-83.83-37.604-83.83-83.83s37.603-83.83,83.83-83.83c46.227,0,83.83,37.603,83.83,83.83
						S265.328,294.811,219.102,294.811z M375.13,186.915l-1.505,1.503l0,0l29.582,22.162l-29.481,22.16l1.505,1.504l31.085-23.664
						L375.13,186.915z M311.255,210.58l31.085,23.664l1.504-1.504l-29.48-22.16l29.581-22.162l0,0l-1.505-1.503L311.255,210.58
						 M349.059,239.258l1.904,0.502l17.649-58.06l-1.905-0.501L349.059,239.258 M357.883,128.855
						c-45.325,0-82.226,36.801-82.226,82.125s36.901,82.125,82.226,82.125c45.324,0,82.226-36.801,82.226-82.125
						C440.009,165.656,403.207,128.855,357.883,128.855z M357.883,294.811c-46.227,0-83.83-37.604-83.83-83.83
						s37.604-83.83,83.83-83.83c46.226,0,83.83,37.603,83.83,83.83S404.108,294.811,357.883,294.811z"/>
				</defs>
				<clipPath id="SVGID_2_">
					<use xlink:href="#SVGID_1_"  overflow="visible"/>
				</clipPath>
				<rect x="129.957" y="2.108" clip-path="url(#SVGID_2_)" fill="#FFFFFF" width="316.87" height="298.017"/>
			</g>
		</g>
	</g>
	<g>
		<g>
			<path fill="#FFFFFF" d="M315.366,332.113l-20.758,54.449h-1.704l-21.259-54.449h1.504l20.556,52.443h0.101l20.056-52.443H315.366
				z"/>
			<path fill="#FFFFFF" d="M340.936,332.113c2.707,0,5.415,0.4,8.223,1.203c2.808,0.801,5.314,2.307,7.421,4.412
				c2.307,2.105,4.011,4.812,5.414,8.322c1.505,3.41,2.106,8.023,2.106,13.338c0,4.914-0.701,9.025-2.106,12.533
				c-1.504,3.41-3.309,6.217-5.715,8.324c-2.407,2.104-5.015,3.709-8.123,4.812s-6.217,1.504-9.525,1.504h-16.746v-54.449H340.936
				L340.936,332.113z M339.031,385.16c3.208,0,6.217-0.502,9.124-1.605c2.908-1.104,5.416-2.707,7.622-4.814
				c2.206-2.105,3.81-4.812,5.013-8.021s1.905-7.02,1.905-11.432c0-5.012-0.702-9.324-1.905-12.633
				c-1.303-3.311-2.907-6.018-5.013-7.822c-2.106-2.006-4.413-3.309-7.02-4.111c-2.708-0.803-5.314-1.203-8.123-1.203h-17.146
				v51.441h15.543V385.16z"/>
			<path fill="#FFFFFF" d="M444.32,332.113c2.707,0,5.414,0.4,8.222,1.203c2.808,0.801,5.314,2.307,7.421,4.412
				c2.307,2.105,4.011,4.812,5.414,8.322c1.505,3.41,2.106,8.023,2.106,13.338c0,4.914-0.702,9.025-2.106,12.533
				c-1.503,3.41-3.308,6.217-5.716,8.324c-2.406,2.104-5.013,3.709-8.121,4.812c-3.009,1.104-6.217,1.504-9.526,1.504h-16.746
				v-54.449h18.952l0,0H444.32z M442.314,385.16c3.209,0,6.217-0.502,9.126-1.605c2.906-1.104,5.414-2.707,7.619-4.814
				c2.207-2.105,3.812-4.812,5.015-8.021s1.905-7.02,1.905-11.432c0-5.012-0.702-9.324-1.905-12.633
				c-1.305-3.311-2.908-6.018-5.015-7.822c-2.104-2.006-4.411-3.309-7.019-4.111c-2.707-0.803-5.314-1.203-8.122-1.203h-17.147
				v51.441h15.543V385.16z"/>
			<path fill="#FFFFFF" d="M515.014,385.16v1.502h-36.5v-54.447h36.099v1.502h-34.695v23.766h32.59v1.504h-32.59v26.174H515.014
				L515.014,385.16z"/>
			<path fill="#FFFFFF" d="M561.642,332.113l-20.757,54.449h-1.704l-21.26-54.449h1.505l20.556,52.443h0.102l20.055-52.443H561.642z
				"/>
		</g>
		<g>
			<path fill="#FFFFFF" d="M55.151,331.512v34.193c0,7.32-1.705,12.736-5.014,16.244c-3.409,3.41-8.322,5.316-14.84,5.316
				c-6.518,0-11.432-1.705-14.84-5.316c-3.41-3.408-5.014-8.924-5.014-16.244v-34.193h1.504v34.193
				c0,6.518,1.504,11.531,4.512,15.041c3.008,3.41,7.721,5.014,13.938,5.014c6.217,0,11.03-1.705,13.938-5.014
				c3.008-3.408,4.512-8.322,4.512-15.041v-34.193H55.151z"/>
			<path fill="#FFFFFF" d="M103.985,331.512l-19.955,26.572l20.757,28.078h-1.905l-19.956-26.875l-20.055,26.875h-1.905
				l20.958-28.078L62.17,331.512h1.906l18.851,25.27l18.953-25.27H103.985z"/>
			<path fill="#FFFFFF" d="M200.852,331.512v34.193c0,7.32-1.705,12.736-5.014,16.244c-3.409,3.41-8.323,5.316-14.841,5.316
				c-6.518,0-11.431-1.705-14.84-5.316c-3.41-3.408-5.014-8.924-5.014-16.244v-34.193h1.504v34.193
				c0,6.518,1.504,11.531,4.513,15.041c3.008,3.41,7.721,5.014,13.938,5.014c6.218,0,11.03-1.705,13.938-5.014
				c3.009-3.408,4.513-8.322,4.513-15.041v-34.193H200.852z"/>
			<path fill="#FFFFFF" d="M214.389,331.512v54.449h-1.504v-54.449H214.389z"/>
		</g>
		<circle fill="#FFFFFF" cx="127.851" cy="359.287" r="4.111"/>
		<circle fill="#FFFFFF" cx="244.772" cy="359.287" r="4.111"/>
		<circle fill="#FFFFFF" cx="395.185" cy="359.287" r="4.111"/>
	</g>
</g>
</svg>
