<?xml version="1.0" encoding="UTF-8" standalone="no"?>
<svg width="264px" height="69px" viewBox="0 0 264 69" version="1.1" xmlns="http://www.w3.org/2000/svg" xmlns:xlink="http://www.w3.org/1999/xlink" xmlns:sketch="http://www.bohemiancoding.com/sketch/ns">
    <!-- Generator: Sketch 3.2.2 (9983) - http://www.bohemiancoding.com/sketch -->
    <title>Artboard 2</title>
    <desc>Created with Sketch.</desc>
    <defs></defs>
    <g id="Page-1" stroke="none" stroke-width="1" fill="none" fill-rule="evenodd" sketch:type="MSPage">
        <g id="Artboard-2" sketch:type="MSArtboardGroup">
            <g id="Github" sketch:type="MSLayerGroup" transform="translate(2.000000, 2.000000)">
                <g id="Group" transform="translate(81.723895, 7.996517)" fill="#FFFFFF" sketch:type="MSShapeGroup">
                    <path d="M34.8937762,21.0866659 L19.8648157,21.0866659 C19.4771374,21.0866659 19.1624513,21.4005357 19.1624513,21.7872084 L19.1624513,29.1157896 C19.1624513,29.5024623 19.4771374,29.8174465 19.8648157,29.8174465 L25.7276595,29.8174465 L25.7276595,38.9230136 C25.7276595,38.9230136 24.4111917,39.370603 20.771633,39.370603 C16.4777507,39.370603 10.4793498,37.8057114 10.4793498,24.6499239 C10.4793498,11.4915362 16.7254031,9.76023787 22.5893641,9.76023787 C27.6653065,9.76023787 29.8520955,10.6513309 31.2434176,11.0810911 C31.6806265,11.2144394 32.0850633,10.7802218 32.0850633,10.3935491 L33.7616511,3.31234936 C33.7616511,3.13108491 33.7002036,2.91304754 33.4931438,2.76521301 C32.9281985,2.36293965 29.4808032,0.438862084 20.771633,0.438862084 C10.7385468,0.438862084 0.447008436,4.69634801 0.447008436,25.1628874 C0.447008436,45.6297982 12.2300472,48.6797212 22.1592311,48.6797212 C30.3805447,48.6797212 35.3678536,45.1758942 35.3678536,45.1758942 C35.5734237,45.0626039 35.5957683,44.7762209 35.5957683,44.6447299 L35.5957683,21.7872084 C35.5957683,21.4005357 35.2814546,21.0866659 34.8937762,21.0866659" id="Fill-1"></path>
                    <path d="M112.346773,2.89113237 C112.346773,2.50111665 112.036929,2.18650397 111.648878,2.18650397 L103.186988,2.18650397 C102.800426,2.18650397 102.486113,2.50111665 102.486113,2.89113237 C102.486113,2.89298959 102.488347,19.2023328 102.488347,19.2023328 L89.2979728,19.2023328 L89.2979728,2.89113237 C89.2979728,2.50111665 88.9866384,2.18650397 88.5997048,2.18650397 L80.1378146,2.18650397 C79.7527431,2.18650397 79.4388019,2.50111665 79.4388019,2.89113237 L79.4388019,47.0568843 C79.4388019,47.4465286 79.7527431,47.7633699 80.1378146,47.7633699 L88.5997048,47.7633699 C88.9866384,47.7633699 89.2979728,47.4465286 89.2979728,47.0568843 L89.2979728,28.165637 L102.488347,28.165637 C102.488347,28.165637 102.465258,47.0553985 102.465258,47.0568843 C102.465258,47.4465286 102.779199,47.7633699 103.166133,47.7633699 L111.648505,47.7633699 C112.036184,47.7633699 112.346029,47.4465286 112.346773,47.0568843 L112.346773,2.89113237" id="Fill-2"></path>
                    <path d="M50.8623261,8.68676602 C50.8623261,5.64761493 48.4193193,3.1916302 45.4054087,3.1916302 C42.3944773,3.1916302 39.9496085,5.64761493 39.9496085,8.68676602 C39.9496085,11.7229456 42.3944773,14.1856163 45.4054087,14.1856163 C48.4193193,14.1856163 50.8623261,11.7229456 50.8623261,8.68676602" id="Fill-3"></path>
                    <path d="M50.2571605,37.7403373 L50.2571605,17.3532868 C50.2571605,16.9662427 49.9439641,16.6497728 49.5570306,16.6497728 L41.1215814,16.6497728 C40.7346479,16.6497728 40.388307,17.0479602 40.388307,17.4350044 L40.388307,46.6434677 C40.388307,47.5015022 40.9245768,47.7570554 41.6187482,47.7570554 L49.2188827,47.7570554 C50.0527077,47.7570554 50.2571605,47.3484675 50.2571605,46.6297242 L50.2571605,37.7403373" id="Fill-4"></path>
                    <path d="M144.506946,16.7162612 L136.109483,16.7162612 C135.724412,16.7162612 135.410843,17.0331025 135.410843,17.4223753 L135.410843,39.078277 C135.410843,39.078277 133.277681,40.6349969 130.249618,40.6349969 C127.221929,40.6349969 126.418269,39.2647416 126.418269,36.3076795 L126.418269,17.4223753 C126.418269,17.0331025 126.105445,16.7162612 125.720001,16.7162612 L117.197408,16.7162612 C116.812709,16.7162612 116.49765,17.0331025 116.49765,17.4223753 L116.49765,37.7373658 C116.49765,46.5208913 121.405636,48.6696922 128.157422,48.6696922 C133.696269,48.6696922 138.162205,45.6175406 138.162205,45.6175406 C138.162205,45.6175406 138.37485,47.2258911 138.470932,47.4168131 C138.567386,47.6069922 138.818018,47.7990285 139.08876,47.7990285 L144.51067,47.7752561 C144.89537,47.7752561 145.210428,47.4580434 145.210428,47.0698848 L145.207821,17.4223753 C145.207821,17.0331025 144.89388,16.7162612 144.506946,16.7162612" id="Fill-5"></path>
                    <path d="M167.458176,15.7241354 C162.688726,15.7241354 159.444667,17.8465639 159.444667,17.8465639 L159.444667,2.89113237 C159.444667,2.50111665 159.132215,2.18650397 158.746399,2.18650397 L150.260302,2.18650397 C149.874485,2.18650397 149.560917,2.50111665 149.560917,2.89113237 L149.560917,47.0568843 C149.560917,47.4465286 149.874485,47.7633699 150.261419,47.7633699 L156.149214,47.7633699 C156.41437,47.7633699 156.615099,47.6270502 156.763318,47.3885834 C156.909675,47.151231 157.120831,45.3519584 157.120831,45.3519584 C157.120831,45.3519584 160.590571,48.631805 167.159876,48.631805 C174.871733,48.631805 179.294469,44.7305334 179.294469,31.116756 C179.294469,17.50335 172.230977,15.7241354 167.458176,15.7241354 L167.458176,15.7241354 Z M164.145965,40.6082529 C161.23335,40.5198494 159.257717,39.2015962 159.257717,39.2015962 L159.257717,25.2148895 C159.257717,25.2148895 161.206909,24.02367 163.59815,23.8108329 C166.622116,23.5407934 169.535849,24.451573 169.535849,31.6464345 C169.535849,39.2335404 168.22087,40.7308293 164.145965,40.6082529 L164.145965,40.6082529 Z" id="Fill-6"></path>
                    <path d="M74.5777398,16.6460583 L68.2303911,16.6460583 C68.2303911,16.6460583 68.2207085,8.28337833 68.2207085,8.28152111 C68.2207085,7.96505121 68.0572207,7.80681626 67.6900248,7.80681626 L59.0400678,7.80681626 C58.703782,7.80681626 58.5231633,7.95465079 58.5231633,8.27669235 L58.5231633,16.9201837 C58.5231633,16.9201837 54.1883159,17.96394 53.8948572,18.0482577 C53.6032605,18.1325754 53.3883802,18.4011291 53.3883802,18.7216849 L53.3883802,24.1529324 C53.3883802,24.543691 53.7012042,24.8586751 54.0881378,24.8586751 L58.5231633,24.8586751 L58.5231633,37.9253162 C58.5231633,47.6307646 65.3486859,48.5838887 69.9546474,48.5838887 C72.0591339,48.5838887 74.5766226,47.9100901 74.9922316,47.7570554 C75.2436081,47.6649374 75.3895926,47.4052984 75.3895926,47.1237442 L75.3966684,41.1487033 C75.3966684,40.759059 75.0667135,40.4437034 74.6950488,40.4437034 C74.3252461,40.4437034 73.3789534,40.5937666 72.40473,40.5937666 C69.2869171,40.5937666 68.2303911,39.1477369 68.2303911,37.2760329 C68.2303911,35.4058146 68.2300187,24.8586751 68.2300187,24.8586751 L74.5777398,24.8586751 C74.9650457,24.8586751 75.2782422,24.543691 75.2782422,24.1529324 L75.2782422,17.3495724 C75.2782422,16.9599281 74.9650457,16.6460583 74.5777398,16.6460583" id="Fill-7"></path>
                </g>
                <path d="M33.1756402,0.128430289 C14.855784,0.128430289 0,14.9424142 0,33.2184217 C0,47.8385747 9.50563978,60.2408945 22.6876882,64.6173917 C24.3454679,64.9234404 24.9542478,63.8991973 24.9542478,63.025122 C24.9542478,62.2363324 24.9239724,59.628797 24.9092439,56.8645646 C15.6797643,58.8657154 13.7323233,52.9606067 13.7323233,52.9606067 C12.2230565,49.1354053 10.0489595,48.1185073 10.0489595,48.1185073 C7.03819924,46.0647162 10.2756154,46.1067469 10.2756154,46.1067469 C13.6071306,46.34016 15.3614641,49.5173542 15.3614641,49.5173542 C18.3202653,54.575728 23.1221803,53.1136311 25.0156167,52.2681204 C25.3134606,50.1294517 26.1730349,48.668987 27.1222079,47.8426554 C19.7530255,47.0069383 12.0062195,44.1684381 12.0062195,31.4894502 C12.0062195,27.8772588 13.3027407,24.9253166 15.4252878,22.6079154 C15.0808035,21.7742386 13.9450689,18.4089265 15.746861,13.8508403 C15.746861,13.8508403 18.5326018,12.9620747 24.8720134,17.2430847 C27.5182421,16.5097919 30.3567602,16.1421253 33.1756402,16.1290673 C35.9953384,16.1421253 38.835493,16.5097919 41.4870404,17.2430847 C47.8190877,12.9620747 50.6011463,13.8508403 50.6011463,13.8508403 C52.4066205,18.4089265 51.2712951,21.7742386 50.9268108,22.6079154 C53.0538583,24.9253166 54.3409695,27.8772588 54.3409695,31.4894502 C54.3409695,44.1998591 46.5798442,46.9971447 39.1922511,47.8169473 C40.3819903,48.8436389 41.4424456,50.8574397 41.4424456,53.9440434 C41.4424456,58.3715487 41.4039877,61.9355885 41.4039877,63.025122 C41.4039877,63.9061344 42.0013121,64.9377227 43.6828211,64.612903 C56.8579144,60.2327332 66.3516895,47.8332699 66.3516895,33.2184217 C66.3516895,14.9424142 51.4979511,0.128430289 33.1756402,0.128430289" id="Fill-8" fill="#39BFFE" sketch:type="MSShapeGroup"></path>
            </g>
        </g>
    </g>
</svg>