<?xml version="1.0" encoding="utf-8"?>
<!-- Generator: Adobe Illustrator 18.1.0, SVG Export Plug-In . SVG Version: 6.00 Build 0)  -->
<svg version="1.1" xmlns="http://www.w3.org/2000/svg" xmlns:xlink="http://www.w3.org/1999/xlink" x="0px" y="0px"
	 viewBox="0 0 607.1 82" enable-background="new 0 0 607.1 82" xml:space="preserve">
<g id="Layer_2" display="none">
	<rect display="inline" fill="#282828" width="607.1" height="82"/>
</g>
<g id="Layer_1">
	<g display="none">
		<g display="inline">
			<defs>
				<path id="SVGID_1_" d="M319.5-202.7c-4,0-7.2-3.2-7.2-7.3c0-3.8,3.2-7,7.2-7c4.1,0,7.3,3.3,7.3,7
					C326.8-205.9,323.5-202.7,319.5-202.7z M269.6-202.7c-4,0-7.3-3.2-7.3-7.2s3.3-7.3,7.3-7.3c4,0,7.2,3.3,7.2,7.3
					S273.5-202.7,269.6-202.7z M302.4-250.7c4,0,7.3,3.2,7.3,7.3c0,3.8-3.3,7.2-7.3,7.2c-4,0-7-3.3-7-7.2
					C295.3-247.5,298.4-250.7,302.4-250.7z M319.5-219c-4.5,0-8.2,3.7-9,8.1h-31.9c-0.1-1.7-0.8-3.3-1.9-4.6l20-21.1
					c1.6,1.5,3.6,2.3,5.8,2.3c4.9,0,9-4.1,9-8.9c0-5-4.1-9.1-9-9.1c-4.5,0-8.3,3.3-8.9,8h-27.8c-0.8-4.6-4.5-8-9-8c-4.9,0-9,4-9,9.1
					c0,4.9,4.1,8.9,9,8.9c4.8,0,8.6-3.7,9-8.3h27.7v-0.5c0,2,0.8,3.8,1.9,5.4l-20,21.2c-1.6-1.3-3.6-2-5.7-2c-5,0-8.9,4-8.9,8.9
					c0,4.9,3.8,9.1,8.9,9.1c4.6,0,8.6-3.6,8.9-8.2h31.9c0.5,4.6,4.2,8.1,9,8.1c5,0,9-4,9-9C328.5-214.9,324.5-219,319.5-219z
					 M287.4-307.9c-45.2,0-82,36.7-82,81.9s36.8,81.9,82,81.9s82-36.7,82-81.9S332.8-307.9,287.4-307.9z M287.4-142.4
					c-46.1,0-83.6-37.5-83.6-83.6s37.5-83.6,83.6-83.6s83.6,37.5,83.6,83.6S333.6-142.4,287.4-142.4z M200.6-88.4l-1.7,0.5
					c2.4,7.7,9.4,13,17.4,13.9l0.3-1.6C209.1-76.4,202.9-81.3,200.6-88.4z M219.5-69.7c-14,0-25.4-10.7-25.4-23.9
					c0-3.6,0.8-7,2.5-10.2l0,0l0.4-0.7c0.1-0.3,0.3-0.5,0.5-0.8l22-37.6l22.1,37.5c0.1,0.3,0.4,0.7,0.5,0.9l0.3,0.5
					c1.7,3.3,2.5,6.8,2.5,10.3C244.9-80.4,233.5-69.7,219.5-69.7z M244-104.7L244-104.7l-0.3-0.5c-0.3-0.4-0.4-0.8-0.7-1.1
					l-23.7-40.1l-23.6,40.3c-0.1,0.3-0.4,0.5-0.5,0.9l-0.4,0.8v-0.1c-1.7,3.3-2.8,7-2.8,11c0,14,12.2,25.4,27.3,25.4
					c15.1,0,27.3-11.4,27.3-25.4C246.8-97.5,245.7-101.2,244-104.7z M218.5-188.4c-45.2,0-82,36.7-82,81.9s36.8,81.9,82,81.9
					s82-36.7,82-81.9C300.4-151.7,263.7-188.4,218.5-188.4z M218.5-22.9c-46.1,0-83.6-37.5-83.6-83.6s37.5-83.6,83.6-83.6
					s83.6,37.5,83.6,83.6S264.6-22.9,218.5-22.9z M374.1-130.5l-1.5,1.5l0,0l29.5,22.1l-29.4,22.1l1.5,1.5l31-23.6L374.1-130.5z
					 M310.4-106.9l31,23.6l1.5-1.5l-29.4-22.1L343-129l0,0l-1.5-1.5L310.4-106.9 M348.1-78.3l1.9,0.5l17.6-57.9l-1.9-0.5L348.1-78.3
					 M356.9-188.4c-45.2,0-82,36.7-82,81.9s36.8,81.9,82,81.9c45.2,0,82-36.7,82-81.9C438.8-151.7,402.1-188.4,356.9-188.4z
					 M356.9-22.9c-46.1,0-83.6-37.5-83.6-83.6s37.5-83.6,83.6-83.6s83.6,37.5,83.6,83.6S403-22.9,356.9-22.9z"/>
			</defs>
			<clipPath id="SVGID_2_">
				<use xlink:href="#SVGID_1_"  overflow="visible"/>
			</clipPath>
			<rect x="129.6" y="-314.8" clip-path="url(#SVGID_2_)" fill="#FFFFFF" width="316" height="297.2"/>
		</g>
	</g>
	<g>
		<g>
			<path fill="#FFFFFF" d="M306.5,14.3l-20.7,54.3h-1.7l-21.2-54.3h1.5l20.5,52.3h0.1l20-52.3H306.5z"/>
			<path fill="#FFFFFF" d="M379,14.3c2.7,0,5.4,0.4,8.2,1.2c2.8,0.8,5.3,2.3,7.4,4.4c2.3,2.1,4,4.8,5.4,8.3c1.5,3.4,2.1,8,2.1,13.3
				c0,4.9-0.7,9-2.1,12.5s-3.3,6.2-5.7,8.3c-2.4,2.1-5,3.7-8.1,4.8c-3,1.1-6.2,1.5-9.5,1.5h-16.7V14.2H379V14.3z M377.1,67.2
				c3.2,0,6.2-0.5,9.1-1.6c2.9-1.1,5.4-2.7,7.6-4.8c2.1-2.1,3.8-4.8,5-8s1.9-7,1.9-11.4c0-5-0.7-9.3-1.9-12.6c-1.3-3.3-2.9-6-5-7.8
				c-2.1-2-4.4-3.3-7-4.1c-2.7-0.8-5.3-1.2-8.1-1.2h-17.1v51.3h15.5V67.2z"/>
			<path fill="#FFFFFF" d="M482.1,14.3c2.7,0,5.4,0.4,8.2,1.2c2.8,0.8,5.3,2.3,7.4,4.4c2.3,2.1,4,4.8,5.4,8.3
				c1.5,3.4,2.1,8,2.1,13.3c0,4.9-0.7,9-2.1,12.5c-1.5,3.4-3.3,6.2-5.7,8.3c-2.4,2.1-5,3.7-8.1,4.8c-3,1.1-6.2,1.5-9.5,1.5h-16.7
				V14.2h18.9V14.3z M480.1,67.2c3.2,0,6.2-0.5,9.1-1.6c2.9-1.1,5.4-2.7,7.6-4.8c2.1-2.1,3.8-4.8,5-8s1.9-7,1.9-11.4
				c0-5-0.7-9.3-1.9-12.6c-1.3-3.3-2.9-6-5-7.8c-2.1-2-4.4-3.3-7-4.1c-2.7-0.8-5.3-1.2-8.1-1.2h-17.1v51.3h15.5V67.2z"/>
			<path fill="#FFFFFF" d="M552.6,67.2v1.5h-36.4V14.3h36v1.5h-34.6v23.7h32.5V41h-32.5v26.1h35V67.2z"/>
			<path fill="#FFFFFF" d="M599.1,14.3l-20.7,54.3h-1.7l-21.2-54.3h1.5l20.5,52.3h0.1l20-52.3H599.1z"/>
		</g>
		<g>
			<path fill="#FFFFFF" d="M47,13.7v34.1c0,7.3-1.7,12.7-5,16.2c-3.4,3.4-8.3,5.3-14.8,5.3s-11.4-1.7-14.8-5.3
				c-3.4-3.4-5-8.9-5-16.2V13.7h1.5v34.1c0,6.5,1.5,11.5,4.5,15c3,3.4,7.7,5,13.9,5s11-1.7,13.9-5c3-3.4,4.5-8.3,4.5-15V13.7H47z"/>
			<path fill="#FFFFFF" d="M95.7,13.7L75.8,40.2l20.7,28h-1.9L74.7,41.4l-20,26.8h-1.9l20.9-28L54,13.7h1.9l18.8,25.2l18.9-25.2
				H95.7z"/>
			<path fill="#FFFFFF" d="M192.3,13.7v34.1c0,7.3-1.7,12.7-5,16.2c-3.4,3.4-8.3,5.3-14.8,5.3s-11.4-1.7-14.8-5.3
				c-3.4-3.4-5-8.9-5-16.2V13.7h1.5v34.1c0,6.5,1.5,11.5,4.5,15c3,3.4,7.7,5,13.9,5s11-1.7,13.9-5c3-3.4,4.5-8.3,4.5-15V13.7H192.3z
				"/>
			<path fill="#FFFFFF" d="M205.8,13.7V68h-1.5V13.7H205.8z"/>
		</g>
		<circle fill="#FFFFFF" cx="119.5" cy="41.4" r="4.1"/>
		<circle fill="#FFFFFF" cx="236.1" cy="41.4" r="4.1"/>
		<circle fill="#FFFFFF" cx="431.1" cy="41.4" r="4.1"/>
		<g>
			<path fill="#FFFFFF" d="M346.1,22.3c-0.9-1.8-2.1-3.3-3.6-4.5c-1.5-1.2-3.3-2-5.3-2.5c-2.1-0.5-4.3-0.7-6.6-0.7
				c-1.8,0-3.7,0.2-5.7,0.6c-2,0.4-3.7,1-5.3,2c-1.6,0.9-2.9,2.2-3.9,3.7c-1,1.5-1.5,3.5-1.5,5.9c0,2.4,0.5,4.2,1.6,5.7
				c1.1,1.4,2.4,2.6,4.1,3.5c1.7,0.9,3.6,1.6,5.8,2.1c2.2,0.5,4.4,1,6.6,1.5c2.5,0.6,4.8,1.3,7,1.8c2.2,0.6,4.1,1.4,5.7,2.4
				c1.6,1,2.9,2.3,3.9,3.9s1.4,3.8,1.4,6.6c0,2.5-0.5,4.6-1.6,6.4c-1.1,1.8-2.5,3.2-4.3,4.4s-3.8,2-6,2.5c-2.2,0.5-4.4,0.8-6.7,0.8
				c-3,0-5.8-0.3-8.3-1c-2.5-0.7-4.7-1.8-6.6-3.3c-1.8-1.5-3.3-3.4-4.3-5.8c-1-2.4-1.5-5.2-1.4-8.5h1.5c0,3.1,0.5,5.8,1.4,8
				c0.9,2.2,2.2,4,3.9,5.3c1.7,1.4,3.7,2.4,6,3s4.9,0.9,7.7,0.9c2.1,0,4.1-0.2,6.2-0.7c2-0.5,3.9-1.2,5.5-2.2c1.6-1,2.9-2.4,3.9-4
				c1-1.6,1.5-3.6,1.5-5.8c0-2.7-0.6-4.8-1.7-6.3c-1.2-1.5-2.6-2.8-4.4-3.7c-1.8-0.9-3.8-1.6-6-2.1c-2.2-0.5-4.3-0.9-6.3-1.4
				c-2.1-0.5-4.2-1-6.3-1.5c-2.1-0.5-4-1.3-5.7-2.2c-1.7-1-3.1-2.2-4.1-3.8c-1-1.6-1.5-3.7-1.5-6.2c0-2.6,0.5-4.8,1.6-6.5
				c1.1-1.7,2.5-3.1,4.2-4.2c1.7-1,3.6-1.8,5.8-2.2c2.1-0.4,4.3-0.7,6.4-0.7c2.6,0,5,0.3,7.2,0.8c2.2,0.6,4.1,1.5,5.7,2.7
				c1.6,1.3,3,2.9,3.9,4.9c1,2,1.5,4.5,1.7,7.5h-1.5C347.5,26.4,347,24.2,346.1,22.3z"/>
		</g>
	</g>
</g>
</svg>
