<?xml version="1.0" encoding="utf-8"?>
<!-- Generator: Adobe Illustrator 18.1.0, SVG Export Plug-In . SVG Version: 6.00 Build 0)  -->
<svg version="1.1" id="Layer_1" xmlns="http://www.w3.org/2000/svg" xmlns:xlink="http://www.w3.org/1999/xlink" x="0px" y="0px"
	 viewBox="153 -103.2 386.3 286.2" enable-background="new 153 -103.2 386.3 286.2" xml:space="preserve">
<g>
	<path fill="#231F20" d="M324.2-38.7c3.5,0,6.4-2.8,6.7-6.2h20.6c0-0.1,0-0.3,0-0.4c0,1.5,0.6,2.9,1.4,4L338-25.6
		c-1.2-1-2.7-1.5-4.3-1.5c-3.7,0-6.6,2.9-6.6,6.6c0,3.7,2.9,6.8,6.6,6.8c3.4,0,6.4-2.7,6.6-6.1h23.8c0.4,3.5,3.2,6,6.7,6
		c3.8,0,6.8-2.9,6.8-6.7c0-3.6-3-6.7-6.8-6.7c-3.3,0-6.1,2.7-6.7,6h-23.8c-0.1-1.3-0.5-2.4-1.4-3.5l14.9-15.7
		c1.2,1.1,2.7,1.7,4.3,1.7c3.7,0,6.7-3,6.7-6.6c0-3.8-3-6.8-6.7-6.8c-3.4,0-6.2,2.5-6.6,5.9h-20.8c-0.6-3.5-3.3-5.9-6.7-5.9
		c-3.7,0-6.8,3-6.8,6.8C317.4-41.7,320.5-38.7,324.2-38.7z M370.9-25.8c3,0,5.4,2.4,5.4,5.3c0,3.1-2.4,5.4-5.4,5.4
		c-3,0-5.3-2.4-5.3-5.4C365.6-23.4,368-25.8,370.9-25.8z M339.1-20.4c0,3-2.4,5.3-5.3,5.3c-3,0-5.4-2.4-5.4-5.3s2.5-5.4,5.4-5.4
		C336.7-25.8,339.1-23.4,339.1-20.4z M358.2-50.8c3,0,5.4,2.4,5.4,5.4c0,2.9-2.5,5.3-5.4,5.3c-3,0-5.3-2.4-5.3-5.3
		C352.9-48.4,355.2-50.8,358.2-50.8z"/>
	<path fill="#231F20" d="M306.8,71.7L306.8,71.7L306.8,71.7l-0.2-0.4c-0.1-0.3-0.3-0.6-0.5-0.8l-17-31l-17,31.1
		c-0.1,0.2-0.3,0.5-0.4,0.7l-0.3,0.6l0-0.1c-1.2,2.6-2,5.5-2,8.5c0,10.9,8.8,19.6,19.7,19.6c10.9,0,19.7-8.8,19.7-19.6
		C308.8,77.2,308.1,74.3,306.8,71.7L306.8,71.7z M307.5,80.3c0,10.1-8.2,18.4-18.4,18.4c-10.1,0-18.4-8.2-18.4-18.4
		c0-2.7,0.6-5.4,1.8-7.9l0,0l0.2-0.5c0.1-0.2,0.2-0.4,0.4-0.7l15.9-29.1l15.9,29c0.1,0.2,0.3,0.5,0.4,0.7l0.2,0.4
		C306.9,74.8,307.5,77.5,307.5,80.3z"/>
	<path fill="#231F20" d="M276.8,83.1l-1.2,0.4c1.7,5.9,6.7,10,12.5,10.8l0.2-1.2C282.9,92.3,278.4,88.6,276.8,83.1z"/>
	<path fill="#231F20" d="M406.4,1.5c5.9-10.1,9.3-21.9,9.3-34.4c0-37.6-30.6-68.2-68.2-68.2s-68.2,30.6-68.2,68.2
		c0,12.5,3.4,24.3,9.3,34.4c-37.4,0.3-67.7,30.8-67.7,68.2c0,37.6,30.6,68.2,68.2,68.2c24.7,0,46.4-13.2,58.4-33
		c12,19.7,33.7,33,58.4,33c37.6,0,68.2-30.6,68.2-68.2C474.1,32.3,443.8,1.8,406.4,1.5z M280.5-32.9c0-37,30.1-67,67-67
		c37,0,67,30.1,67,67c0,12.6-3.5,24.3-9.5,34.4c-24.2,0.3-45.5,13.3-57.4,32.6c-0.1,0-0.1,0-0.2,0c-0.1,0-0.1,0-0.2,0
		C335.5,14.8,314.2,1.8,290,1.5C284-8.5,280.5-20.3,280.5-32.9z M404.3,2.7c-11.6,18.5-32,30.9-55.2,31.4
		C360.7,15.7,381.1,3.3,404.3,2.7z M345.9,34.1c-23.2-0.5-43.6-13-55.2-31.4C314,3.3,334.3,15.7,345.9,34.1z M289.2,136.8
		c-37,0-67-30.1-67-67s30.1-67,67-67c0.1,0,0.1,0,0.2,0C301.2,22,322.4,35,346.7,35.3c0.1,0.1,0.1,0.2,0.2,0.3
		c-5.8,10-9.2,21.7-9.2,34.1c0,12.4,3.3,24.1,9.2,34.1C335.2,123.5,313.7,136.8,289.2,136.8z M338.9,69.7c0-12,3.2-23.2,8.7-32.9
		c5.5,9.7,8.7,21,8.7,32.9c0,12-3.2,23.2-8.7,32.9C342,92.9,338.9,81.7,338.9,69.7z M405.9,136.8c-24.5,0-46-13.2-57.7-33
		c5.8-10,9.2-21.7,9.2-34.1c0-12.4-3.4-24.1-9.2-34.1c0.1-0.1,0.1-0.2,0.2-0.3C372.6,35,393.9,22,405.7,2.7c0.1,0,0.1,0,0.2,0
		c37,0,67.1,30.1,67.1,67C473,106.7,442.9,136.8,405.9,136.8z"/>
	<polygon fill="#231F20" points="372.9,69.7 394.5,86.3 395.5,85.2 374.9,69.7 395.5,54.2 395.5,54.2 394.5,53.2 	"/>
	<polygon fill="#231F20" points="416.3,54.2 416.3,54.2 436.9,69.7 416.3,85.2 417.4,86.3 439,69.7 417.3,53.2 	"/>
	
		<rect x="405.3" y="48.5" transform="matrix(-0.9565 -0.2916 0.2916 -0.9565 774.0492 254.8045)" fill="#231F20" width="1.4" height="42.4"/>
	<rect x="163.7" y="159.9" fill="#231F20" width="1.2" height="12.5"/>
	<polygon fill="#231F20" points="176.1,170.4 176.1,170.4 168.8,159.9 167.5,159.9 167.5,172.3 168.7,172.3 168.7,161.8 
		168.7,161.8 176,172.3 177.3,172.3 177.3,159.9 176.1,159.9 	"/>
	<polygon fill="#231F20" points="178.5,160.9 182.8,160.9 182.8,172.4 184,172.4 184,160.9 188.4,160.9 188.4,159.9 178.5,159.9 	
		"/>
	<polygon fill="#231F20" points="190.7,166.4 197.7,166.4 197.7,165.4 190.7,165.4 190.7,160.9 198.2,160.9 198.2,159.9 
		189.5,159.9 189.5,172.4 198.2,172.4 198.2,171.3 190.7,171.3 	"/>
	<path fill="#231F20" d="M209.3,170.8c0-0.3-0.1-0.6-0.1-0.9c0-0.3,0-0.6,0-0.8c0-0.4-0.1-0.7-0.1-1c-0.1-0.3-0.2-0.6-0.4-0.9
		c-0.2-0.2-0.4-0.4-0.7-0.6c-0.3-0.2-0.6-0.3-1-0.3v0c0.8-0.2,1.4-0.5,1.8-1.1c0.4-0.6,0.6-1.3,0.6-2.1c0-0.6-0.1-1-0.3-1.5
		c-0.2-0.4-0.5-0.8-0.8-1c-0.3-0.3-0.7-0.5-1.2-0.6c-0.5-0.1-0.9-0.2-1.5-0.2v0h-5.7v12.5h1.2v-5.5h4.5c0.6,0,1,0.1,1.3,0.3
		c0.3,0.2,0.6,0.5,0.7,0.8c0.2,0.3,0.3,0.7,0.3,1.2c0.1,0.4,0.1,0.9,0.1,1.3c0,0.1,0,0.3,0,0.5c0,0.2,0,0.4,0,0.5
		c0,0.2,0,0.4,0.1,0.5c0,0.2,0.1,0.3,0.2,0.4h1.3c-0.1-0.2-0.2-0.4-0.3-0.6C209.4,171.4,209.3,171.1,209.3,170.8z M206.6,165.6
		c-0.3,0.1-0.7,0.2-1,0.2l-4.4,0v-4.9h4.4c0.9,0,1.6,0.2,2,0.7c0.4,0.4,0.7,1,0.7,1.8c0,0.4-0.1,0.7-0.2,1c-0.1,0.3-0.3,0.6-0.6,0.8
		C207.2,165.4,206.9,165.5,206.6,165.6z"/>
	<path fill="#231F20" d="M215.2,159.9l-5,12.5h1.3l1.5-3.9h5.7l1.5,3.9h1.3l-4.9-12.5H215.2z M213.3,167.5l2.5-6.4l2.4,6.4H213.3z"
		/>
	<path fill="#231F20" d="M231.5,169.2c-0.2,0.5-0.5,0.9-0.8,1.3c-0.3,0.4-0.7,0.6-1.2,0.9c-0.5,0.2-1,0.3-1.6,0.3
		c-0.8,0-1.5-0.2-2.1-0.5c-0.6-0.3-1.1-0.7-1.5-1.2c-0.4-0.5-0.7-1.1-0.8-1.8c-0.2-0.7-0.3-1.3-0.3-2c0-0.7,0.1-1.4,0.3-2
		c0.2-0.7,0.5-1.2,0.8-1.8c0.4-0.5,0.9-0.9,1.5-1.3c0.6-0.3,1.3-0.5,2.1-0.5c0.5,0,0.9,0.1,1.3,0.2c0.4,0.1,0.8,0.3,1.1,0.6
		c0.3,0.3,0.6,0.6,0.9,1c0.2,0.4,0.4,0.8,0.5,1.3h1.2c-0.1-0.7-0.3-1.2-0.6-1.7c-0.3-0.5-0.7-0.9-1.2-1.3c-0.5-0.3-1-0.6-1.5-0.8
		c-0.6-0.2-1.1-0.3-1.7-0.3c-1,0-1.8,0.2-2.6,0.5c-0.7,0.4-1.4,0.8-1.8,1.4c-0.5,0.6-0.9,1.3-1.1,2.1c-0.2,0.8-0.4,1.6-0.4,2.5
		c0,0.9,0.1,1.7,0.4,2.5c0.2,0.8,0.6,1.5,1.1,2.1c0.5,0.6,1.1,1.1,1.8,1.4c0.7,0.4,1.6,0.5,2.6,0.5c0.7,0,1.4-0.1,2-0.3
		c0.6-0.2,1.1-0.6,1.6-1c0.4-0.4,0.8-1,1.1-1.6c0.3-0.6,0.5-1.3,0.5-2.1h-1.2C231.8,168.2,231.7,168.7,231.5,169.2z"/>
	<polygon fill="#231F20" points="233.6,160.9 237.9,160.9 237.9,172.4 239.1,172.4 239.1,160.9 243.5,160.9 243.5,159.9 
		233.6,159.9 	"/>
	<rect x="244.7" y="159.9" fill="#231F20" width="1.2" height="12.5"/>
	<path fill="#231F20" d="M258.2,161.6c-0.5-0.6-1.1-1.1-1.8-1.4c-0.7-0.4-1.6-0.5-2.6-0.5c-1,0-1.8,0.2-2.6,0.5
		c-0.7,0.4-1.4,0.8-1.8,1.4c-0.5,0.6-0.9,1.3-1.1,2.1c-0.2,0.8-0.4,1.6-0.4,2.5c0,0.9,0.1,1.7,0.4,2.5s0.6,1.5,1.1,2.1
		c0.5,0.6,1.1,1.1,1.8,1.4c0.7,0.4,1.6,0.5,2.6,0.5c1,0,1.8-0.2,2.6-0.5c0.7-0.4,1.3-0.8,1.8-1.4c0.5-0.6,0.9-1.3,1.1-2.1
		c0.2-0.8,0.4-1.6,0.4-2.5c0-0.9-0.1-1.7-0.4-2.5C259,162.9,258.6,162.2,258.2,161.6z M258.2,168.1c-0.2,0.7-0.5,1.2-0.8,1.8
		c-0.4,0.5-0.9,0.9-1.5,1.2c-0.6,0.3-1.3,0.5-2.1,0.5s-1.5-0.2-2.1-0.5c-0.6-0.3-1.1-0.7-1.5-1.2c-0.4-0.5-0.7-1.1-0.8-1.8
		c-0.2-0.7-0.3-1.3-0.3-2c0-0.7,0.1-1.4,0.3-2c0.2-0.7,0.5-1.2,0.8-1.8c0.4-0.5,0.9-0.9,1.5-1.3c0.6-0.3,1.3-0.5,2.1-0.5
		s1.5,0.2,2.1,0.5c0.6,0.3,1.1,0.7,1.5,1.3c0.4,0.5,0.7,1.1,0.8,1.8c0.2,0.7,0.3,1.3,0.3,2C258.4,166.8,258.3,167.5,258.2,168.1z"/>
	<polygon fill="#231F20" points="270.1,170.4 270.1,170.4 262.8,159.9 261.5,159.9 261.5,172.3 262.7,172.3 262.7,161.8 
		262.7,161.8 270,172.3 271.3,172.3 271.3,159.9 270.1,159.9 	"/>
	<polygon fill="#231F20" points="316.7,171 316.7,171 312.6,159.9 311.3,159.9 316,172.3 317.3,172.3 322,159.9 320.7,159.9 	"/>
	<rect x="323.2" y="159.9" fill="#231F20" width="1.2" height="12.5"/>
	<path fill="#231F20" d="M335.1,166.8c-0.3-0.3-0.6-0.5-1-0.6c-0.4-0.2-0.8-0.3-1.3-0.4l-3-0.8c-0.3-0.1-0.5-0.1-0.7-0.2
		c-0.2-0.1-0.4-0.2-0.6-0.4c-0.2-0.2-0.3-0.3-0.4-0.6c-0.1-0.2-0.1-0.5-0.1-0.8c0-0.5,0.1-0.9,0.3-1.2c0.2-0.3,0.4-0.6,0.7-0.8
		c0.3-0.2,0.6-0.3,1-0.4c0.4-0.1,0.8-0.1,1.2-0.1c0.4,0,0.9,0.1,1.3,0.2c0.4,0.1,0.8,0.3,1.1,0.5c0.3,0.2,0.6,0.5,0.8,0.9
		c0.2,0.4,0.3,0.8,0.3,1.3h1.2c0-0.6-0.1-1.2-0.4-1.7c-0.2-0.5-0.6-0.9-1-1.2c-0.4-0.3-0.9-0.6-1.5-0.7c-0.6-0.2-1.1-0.2-1.8-0.2
		c-0.9,0-1.6,0.1-2.2,0.4c-0.6,0.3-1,0.6-1.3,0.9c-0.3,0.4-0.5,0.7-0.7,1.2c-0.1,0.4-0.2,0.8-0.2,1.1c0,0.5,0.1,0.9,0.2,1.2
		c0.2,0.3,0.4,0.6,0.6,0.9c0.3,0.2,0.6,0.4,0.9,0.6c0.3,0.1,0.7,0.3,1.1,0.3l2.8,0.7c0.3,0.1,0.6,0.2,0.9,0.3
		c0.3,0.1,0.6,0.3,0.8,0.4c0.3,0.2,0.5,0.4,0.6,0.6c0.2,0.3,0.2,0.6,0.2,0.9c0,0.5-0.1,0.8-0.3,1.2c-0.2,0.3-0.5,0.6-0.8,0.8
		c-0.3,0.2-0.7,0.4-1.1,0.4c-0.4,0.1-0.7,0.1-1.1,0.1c-0.6,0-1.1-0.1-1.6-0.2c-0.5-0.1-0.9-0.3-1.3-0.5c-0.4-0.3-0.7-0.6-0.9-1
		c-0.2-0.4-0.3-1-0.3-1.6h-1.2c0,0.8,0.1,1.4,0.3,2c0.2,0.5,0.6,1,1,1.3c0.4,0.3,1,0.6,1.6,0.8s1.3,0.3,2,0.3s1.4-0.1,1.9-0.2
		c0.5-0.1,1-0.3,1.3-0.5c0.4-0.2,0.6-0.5,0.8-0.7c0.2-0.3,0.4-0.5,0.5-0.8c0.1-0.3,0.2-0.5,0.2-0.7c0-0.2,0-0.4,0-0.6
		c0-0.5-0.1-1-0.3-1.3C335.7,167.4,335.4,167.1,335.1,166.8z"/>
	<path fill="#231F20" d="M346.4,167.6c0,0.7-0.1,1.3-0.2,1.8c-0.2,0.5-0.4,0.9-0.7,1.2c-0.3,0.3-0.7,0.6-1.2,0.7
		c-0.5,0.1-1,0.2-1.6,0.2c-0.6,0-1.1-0.1-1.5-0.2c-0.5-0.1-0.8-0.4-1.2-0.7c-0.3-0.3-0.6-0.7-0.7-1.2c-0.2-0.5-0.2-1.1-0.2-1.8v-7.7
		h-1.2v8c0,0.6,0.1,1.2,0.3,1.8s0.5,1.1,0.9,1.5c0.4,0.4,0.9,0.8,1.5,1c0.6,0.3,1.3,0.4,2.2,0.4c0.9,0,1.6-0.1,2.2-0.4
		c0.6-0.3,1.1-0.6,1.5-1c0.4-0.4,0.7-0.9,0.9-1.5c0.2-0.6,0.3-1.2,0.3-1.8v-8h-1.2V167.6z"/>
	<path fill="#231F20" d="M353.6,159.9l-5,12.5h1.3l1.5-3.9h5.7l1.5,3.9h1.3l-4.9-12.5H353.6z M351.7,167.5l2.5-6.4l2.4,6.4H351.7z"
		/>
	<polygon fill="#231F20" points="362.2,159.9 362.2,159.9 362.2,159.9 361,159.9 361,172.4 369.2,172.4 369.2,171.3 362.2,171.3 	
		"/>
	<path fill="#231F20" d="M413.6,159.9L413.6,159.9l-4.3,0v12.5h4.3c1.9,0,3.3-0.6,4.3-1.6c1-1,1.4-2.6,1.4-4.6
		c0-2.1-0.5-3.6-1.4-4.6C416.9,160.4,415.5,159.9,413.6,159.9z M417.9,168.5c-0.2,0.7-0.5,1.2-0.9,1.6c-0.4,0.4-1,0.7-1.6,0.9
		c-0.6,0.2-1.4,0.3-2.3,0.3l-2.5,0v-10.5h2.5c0.9,0,1.7,0.1,2.3,0.3c0.6,0.2,1.2,0.5,1.6,0.9c0.4,0.4,0.7,1,0.9,1.6
		c0.2,0.7,0.3,1.5,0.3,2.4C418.2,167,418.1,167.8,417.9,168.5z"/>
	<polygon fill="#231F20" points="422.5,166.4 429.4,166.4 429.4,165.4 422.5,165.4 422.5,160.9 429.9,160.9 429.9,159.9 
		429.9,159.9 429.9,159.9 421.3,159.9 421.3,172.4 430,172.4 430,171.3 422.5,171.3 	"/>
	<polygon fill="#231F20" points="435.6,171 435.6,171 431.5,159.9 430.3,159.9 434.9,172.3 436.3,172.3 440.9,159.9 439.7,159.9 	
		"/>
	<polygon fill="#231F20" points="443.2,166.4 450.2,166.4 450.2,165.4 443.2,165.4 443.2,160.9 450.6,160.9 450.6,159.9 
		450.6,159.9 450.6,159.9 442,159.9 442,172.4 450.7,172.4 450.7,171.3 443.2,171.3 	"/>
	<polygon fill="#231F20" points="453.6,159.9 453.6,159.9 453.6,159.9 452.4,159.9 452.4,172.4 460.6,172.4 460.6,171.3 
		453.6,171.3 	"/>
	<path fill="#231F20" d="M471.4,161.6c-0.5-0.6-1.1-1.1-1.8-1.4c-0.7-0.4-1.6-0.5-2.6-0.5s-1.8,0.2-2.6,0.5
		c-0.7,0.4-1.4,0.8-1.8,1.4c-0.5,0.6-0.9,1.3-1.1,2.1c-0.2,0.8-0.4,1.6-0.4,2.5c0,0.9,0.1,1.7,0.4,2.5c0.2,0.8,0.6,1.5,1.1,2.1
		c0.5,0.6,1.1,1.1,1.8,1.4c0.7,0.4,1.6,0.5,2.6,0.5c1,0,1.8-0.2,2.6-0.5c0.7-0.4,1.3-0.8,1.8-1.4c0.5-0.6,0.9-1.3,1.1-2.1
		c0.2-0.8,0.4-1.6,0.4-2.5c0-0.9-0.1-1.7-0.4-2.5C472.3,162.9,471.9,162.2,471.4,161.6z M471.4,168.1c-0.2,0.7-0.5,1.2-0.8,1.8
		c-0.4,0.5-0.9,0.9-1.5,1.2c-0.6,0.3-1.3,0.5-2.1,0.5c-0.8,0-1.5-0.2-2.1-0.5c-0.6-0.3-1.1-0.7-1.5-1.2c-0.4-0.5-0.7-1.1-0.8-1.8
		c-0.2-0.7-0.3-1.3-0.3-2c0-0.7,0.1-1.4,0.3-2c0.2-0.7,0.5-1.2,0.8-1.8c0.4-0.5,0.9-0.9,1.5-1.3c0.6-0.3,1.3-0.5,2.1-0.5
		c0.8,0,1.5,0.2,2.1,0.5c0.6,0.3,1.1,0.7,1.5,1.3c0.4,0.5,0.7,1.1,0.8,1.8c0.2,0.7,0.3,1.3,0.3,2
		C471.7,166.8,471.6,167.5,471.4,168.1z"/>
	<path fill="#231F20" d="M483,160.8c-0.3-0.3-0.7-0.5-1.2-0.7c-0.5-0.2-1-0.2-1.5-0.2v0h-5.5v12.5h1.2V167h4.4
		c0.6,0,1.1-0.1,1.5-0.2c0.5-0.2,0.8-0.4,1.2-0.7c0.3-0.3,0.6-0.7,0.8-1.1c0.2-0.4,0.3-0.9,0.3-1.5c0-0.6-0.1-1.1-0.3-1.5
		C483.6,161.5,483.3,161.1,483,160.8z M482,165.4c-0.5,0.4-1.2,0.6-2,0.6v0h-4.1v-5.1h4.1c0.8,0,1.5,0.2,2,0.6s0.8,1.1,0.8,1.9
		C482.8,164.3,482.6,164.9,482,165.4z"/>
	<polygon fill="#231F20" points="491.6,170.8 487.5,159.9 485.7,159.9 485.7,172.3 486.9,172.3 486.9,161.6 487,161.6 491.1,172.3 
		492.2,172.3 496.5,161.6 496.5,161.6 496.5,172.3 497.7,172.3 497.7,159.9 495.9,159.9 	"/>
	<polygon fill="#231F20" points="501.3,166.4 508.3,166.4 508.3,165.4 501.3,165.4 501.3,160.9 508.8,160.9 508.8,159.9 
		508.8,159.9 508.8,159.9 500.1,159.9 500.1,172.4 508.8,172.4 508.8,171.3 501.3,171.3 	"/>
	<polygon fill="#231F20" points="519.1,170.4 519.1,170.4 511.8,159.9 510.5,159.9 510.5,172.3 511.7,172.3 511.7,161.8 
		511.7,161.8 519,172.3 520.3,172.3 520.3,159.9 519.1,159.9 	"/>
	<polygon fill="#231F20" points="521.5,159.9 521.5,160.9 525.8,160.9 525.8,172.4 527,172.4 527,160.9 531.4,160.9 531.4,159.9 	
		"/>
	<circle fill="#231F20" cx="292.4" cy="166.7" r="2.1"/>
	<circle fill="#231F20" cx="388.7" cy="166.7" r="2.1"/>
</g>
</svg>
