<?xml version="1.0" encoding="utf-8"?>
<!-- Generator: Adobe Illustrator 18.1.0, SVG Export Plug-In . SVG Version: 6.00 Build 0)  -->
<svg version="1.1" id="Layer_1" xmlns="http://www.w3.org/2000/svg" xmlns:xlink="http://www.w3.org/1999/xlink" x="0px" y="0px"
	 viewBox="0 0 18 13" enable-background="new 0 0 18 13" xml:space="preserve">
<g>
	<path d="M16.9,7.6H1.1c-0.6,0-1-0.4-1-1c0-0.6,0.4-1,1-1h15.8c0.6,0,1,0.4,1,1C17.9,7.1,17.5,7.6,16.9,7.6z"/>
</g>
<g>
	<path d="M16.9,3H1.1c-0.6,0-1-0.4-1-1s0.4-1,1-1h15.8c0.6,0,1,0.4,1,1S17.5,3,16.9,3z"/>
</g>
<g>
	<path d="M16.9,12H1.1c-0.6,0-1-0.4-1-1s0.4-1,1-1h15.8c0.6,0,1,0.4,1,1S17.5,12,16.9,12z"/>
</g>
</svg>
