<?xml version="1.0" encoding="utf-8"?>
<!-- Generator: Adobe Illustrator 18.1.0, SVG Export Plug-In . SVG Version: 6.00 Build 0)  -->
<svg version="1.1" id="Layer_1" xmlns="http://www.w3.org/2000/svg" xmlns:xlink="http://www.w3.org/1999/xlink" x="0px" y="0px"
	 viewBox="0 0 44 44" enable-background="new 0 0 44 44" xml:space="preserve">
<g>
	<path d="M29.9,22.6H14.1c-0.6,0-1-0.4-1-1c0-0.6,0.4-1,1-1h15.8c0.6,0,1,0.4,1,1C30.9,22.1,30.5,22.6,29.9,22.6z"/>
</g>
<g>
	<path d="M29.9,18H14.1c-0.6,0-1-0.4-1-1s0.4-1,1-1h15.8c0.6,0,1,0.4,1,1S30.5,18,29.9,18z"/>
</g>
<g>
	<path d="M29.9,27H14.1c-0.6,0-1-0.4-1-1s0.4-1,1-1h15.8c0.6,0,1,0.4,1,1S30.5,27,29.9,27z"/>
</g>
</svg>
