<?xml version="1.0" encoding="utf-8"?>
<!-- Generator: Adobe Illustrator 16.0.4, SVG Export Plug-In . SVG Version: 6.00 Build 0)  -->
<!DOCTYPE svg PUBLIC "-//W3C//DTD SVG 1.1//EN" "http://www.w3.org/Graphics/SVG/1.1/DTD/svg11.dtd">
<svg version="1.1" id="tag-web" xmlns="http://www.w3.org/2000/svg" xmlns:xlink="http://www.w3.org/1999/xlink" x="0px" y="0px"
	 width="73.995px" height="75px" viewBox="0 0 73.995 75" enable-background="new 0 0 73.995 75" xml:space="preserve">
<polygon fill="#56A2CB" points="73.995,33.538 73.995,73.996 0,0 40.457,0 "/>
<g>
	<path fill="#FFFFFF" d="M40.296,11.585l0.477,0.479l-5.102,9.047l0.021,0.021l9.08-5.07l0.583,0.584l-5.038,9.11l0.021,0.021
		l9.016-5.134l0.499,0.498l-9.748,5.399l-0.53-0.53l5.091-9.249l-0.021-0.021l-9.217,5.122l-0.52-0.52L40.296,11.585z"/>
	<path fill="#FFFFFF" d="M50.456,21.747l5.092,5.091l-0.403,0.403l-4.624-4.625l-3.034,3.034l4.349,4.349l-0.402,0.402l-4.35-4.348
		l-3.33,3.33l4.678,4.678l-0.402,0.402l-5.145-5.145L50.456,21.747z"/>
	<path fill="#FFFFFF" d="M56.396,27.687l3.034,3.033c0.452,0.453,0.774,0.888,0.965,1.305c0.19,0.418,0.286,0.809,0.286,1.178
		c0,0.367-0.078,0.711-0.232,1.029c-0.156,0.317-0.355,0.598-0.596,0.838c-0.205,0.205-0.434,0.363-0.688,0.477
		c-0.256,0.113-0.519,0.175-0.791,0.186s-0.546-0.026-0.821-0.111c-0.276-0.084-0.538-0.223-0.785-0.414v0.043
		c0.056,0.043,0.151,0.181,0.286,0.413c0.135,0.233,0.232,0.521,0.297,0.86c0.063,0.339,0.054,0.71-0.032,1.113
		c-0.085,0.402-0.317,0.795-0.7,1.178c-0.346,0.346-0.714,0.586-1.103,0.721c-0.39,0.135-0.788,0.177-1.198,0.127
		c-0.41-0.049-0.824-0.191-1.24-0.424c-0.419-0.233-0.824-0.549-1.221-0.944l-3.033-3.034L56.396,27.687z M52.26,37.89
		c0.679,0.679,1.354,1.068,2.025,1.167c0.672,0.1,1.294-0.138,1.866-0.71c0.326-0.326,0.525-0.66,0.6-1.004
		c0.074-0.342,0.067-0.678-0.021-1.007c-0.089-0.329-0.239-0.645-0.451-0.949c-0.213-0.304-0.442-0.579-0.689-0.827l-2.567-2.566
		l-3.33,3.33L52.26,37.89z M55.993,34.157c0.643,0.643,1.268,0.98,1.871,1.012c0.605,0.032,1.141-0.185,1.607-0.651
		c0.276-0.276,0.455-0.562,0.535-0.854c0.082-0.293,0.093-0.587,0.033-0.881c-0.061-0.293-0.182-0.579-0.361-0.858
		c-0.181-0.279-0.397-0.546-0.652-0.801l-2.566-2.567l-3.034,3.034L55.993,34.157z"/>
</g>
</svg>
