<?xml version="1.0" encoding="utf-8"?>
<!-- Generator: Adobe Illustrator 16.0.4, SVG Export Plug-In . SVG Version: 6.00 Build 0)  -->
<!DOCTYPE svg PUBLIC "-//W3C//DTD SVG 1.1//EN" "http://www.w3.org/Graphics/SVG/1.1/DTD/svg11.dtd">
<svg version="1.1" id="tag-web" xmlns="http://www.w3.org/2000/svg" xmlns:xlink="http://www.w3.org/1999/xlink" x="0px" y="0px"
	 width="73.995px" height="75px" viewBox="0 0 73.995 75" enable-background="new 0 0 73.995 75" xml:space="preserve">
<polygon fill="#96C539" points="73.995,33.538 73.995,73.996 0,0 40.457,0 "/>
<g>
	<path fill="#FFFFFF" d="M33.936,5.229l0.669,0.668L30.51,15.909l0.021,0.021l9.981-4.125l0.668,0.668l-7.573,7.573l-0.467-0.467
		l7-7.001l-0.021-0.021l-9.886,4.116l-0.467-0.467l4.084-9.918l-0.021-0.021l-7,7.001l-0.467-0.467L33.936,5.229z"/>
	<path fill="#FFFFFF" d="M45.592,24.458c-0.552,0.552-1.15,0.988-1.798,1.311c-0.646,0.321-1.303,0.507-1.968,0.557
		s-1.322-0.046-1.973-0.286s-1.259-0.645-1.824-1.21S37.059,23.654,36.814,23c-0.243-0.654-0.341-1.313-0.292-1.979
		c0.05-0.664,0.236-1.32,0.558-1.967c0.322-0.647,0.759-1.246,1.31-1.799c0.552-0.551,1.151-0.987,1.799-1.309
		c0.646-0.322,1.302-0.508,1.967-0.559c0.665-0.049,1.324,0.049,1.979,0.293s1.264,0.648,1.829,1.214s0.97,1.175,1.21,1.825
		c0.239,0.65,0.336,1.307,0.286,1.972s-0.235,1.321-0.558,1.968C46.58,23.308,46.144,23.906,45.592,24.458z M38.856,17.723
		c-0.487,0.488-0.877,1.019-1.166,1.592c-0.291,0.572-0.461,1.154-0.515,1.744s0.02,1.176,0.217,1.756
		c0.198,0.579,0.545,1.116,1.04,1.611s1.03,0.84,1.606,1.035c0.577,0.193,1.16,0.265,1.751,0.211
		c0.59-0.053,1.171-0.224,1.744-0.514c0.572-0.289,1.104-0.679,1.592-1.166c0.487-0.488,0.877-1.02,1.166-1.592
		s0.461-1.154,0.514-1.744c0.054-0.591-0.018-1.174-0.211-1.75c-0.195-0.577-0.54-1.112-1.035-1.607s-1.032-0.842-1.611-1.039
		c-0.58-0.197-1.166-0.271-1.756-0.218s-1.172,0.225-1.745,0.515C39.875,16.846,39.345,17.235,38.856,17.723z"/>
	<path fill="#FFFFFF" d="M50.376,21.668l3.033,3.034c0.453,0.452,0.774,0.888,0.965,1.305c0.191,0.417,0.287,0.81,0.286,1.178
		c0,0.367-0.077,0.71-0.233,1.028c-0.155,0.318-0.354,0.598-0.594,0.838c-0.205,0.205-0.435,0.364-0.689,0.477
		c-0.255,0.114-0.518,0.176-0.789,0.188c-0.273,0.01-0.547-0.027-0.822-0.112c-0.276-0.084-0.537-0.224-0.785-0.414v0.043
		c0.057,0.042,0.151,0.181,0.286,0.413c0.134,0.234,0.233,0.521,0.298,0.859c0.062,0.34,0.053,0.711-0.033,1.114
		c-0.084,0.403-0.318,0.796-0.699,1.177c-0.348,0.348-0.715,0.588-1.104,0.722s-0.788,0.177-1.199,0.128
		c-0.41-0.051-0.823-0.192-1.24-0.426c-0.418-0.232-0.824-0.547-1.22-0.943l-3.034-3.033L50.376,21.668z M46.239,31.872
		c0.679,0.679,1.354,1.068,2.025,1.167c0.672,0.1,1.295-0.139,1.867-0.711c0.324-0.324,0.525-0.66,0.6-1.002
		c0.074-0.344,0.066-0.679-0.021-1.008c-0.088-0.328-0.239-0.645-0.451-0.949c-0.213-0.303-0.441-0.58-0.689-0.827l-2.566-2.567
		l-3.33,3.33L46.239,31.872z M49.972,28.139c0.645,0.645,1.269,0.981,1.873,1.014c0.604,0.031,1.14-0.186,1.606-0.652
		c0.276-0.276,0.454-0.561,0.536-0.854c0.082-0.295,0.092-0.588,0.031-0.881c-0.06-0.294-0.18-0.58-0.36-0.859
		s-0.397-0.546-0.652-0.801l-2.567-2.566l-3.033,3.033L49.972,28.139z"/>
	<path fill="#FFFFFF" d="M57.058,28.351l0.467,0.467l-7.573,7.573l-0.467-0.467L57.058,28.351z"/>
	<path fill="#FFFFFF" d="M58.86,30.153l0.467,0.467l-7.17,7.17l4.296,4.296l-0.403,0.403l-4.763-4.763L58.86,30.153z"/>
	<path fill="#FFFFFF" d="M64.164,35.457l5.091,5.092l-0.402,0.402l-4.625-4.624l-3.033,3.034l4.348,4.348l-0.402,0.403l-4.349-4.349
		l-3.33,3.33l4.678,4.678l-0.403,0.403l-5.145-5.145L64.164,35.457z"/>
</g>
</svg>
