<?xml version="1.0" encoding="utf-8"?>
<!-- Generator: Adobe Illustrator 16.0.4, SVG Export Plug-In . SVG Version: 6.00 Build 0)  -->
<!DOCTYPE svg PUBLIC "-//W3C//DTD SVG 1.1//EN" "http://www.w3.org/Graphics/SVG/1.1/DTD/svg11.dtd">
<svg version="1.1" id="tag-web" xmlns="http://www.w3.org/2000/svg" xmlns:xlink="http://www.w3.org/1999/xlink" x="0px" y="0px"
	 width="73.995px" height="75px" viewBox="0 0 73.995 75" enable-background="new 0 0 73.995 75" xml:space="preserve">
<polygon fill="#BF5F5F" points="73.995,33.538 73.995,73.996 0,0 40.457,0 "/>
<g>
	<path fill="#FFFFFF" d="M35.062,6.353l3.033,3.033c0.452,0.453,0.774,0.888,0.966,1.305c0.19,0.418,0.286,0.81,0.285,1.178
		c0,0.367-0.078,0.711-0.232,1.029c-0.156,0.317-0.354,0.598-0.595,0.838c-0.205,0.205-0.435,0.363-0.688,0.477
		c-0.256,0.113-0.519,0.175-0.791,0.186s-0.546-0.026-0.821-0.111c-0.276-0.084-0.537-0.223-0.784-0.414l-0.001,0.043
		c0.057,0.043,0.151,0.182,0.286,0.414c0.135,0.233,0.232,0.52,0.297,0.859c0.063,0.339,0.054,0.71-0.032,1.113
		c-0.085,0.402-0.317,0.796-0.699,1.178c-0.347,0.347-0.714,0.586-1.103,0.721c-0.39,0.135-0.789,0.177-1.199,0.127
		c-0.41-0.049-0.824-0.191-1.24-0.424c-0.418-0.232-0.824-0.549-1.221-0.944l-3.033-3.033L35.062,6.353z M30.925,16.556
		c0.679,0.68,1.354,1.068,2.026,1.168c0.671,0.099,1.294-0.139,1.866-0.711c0.325-0.325,0.525-0.66,0.6-1.003
		s0.066-0.679-0.021-1.008c-0.089-0.329-0.239-0.645-0.45-0.948c-0.213-0.305-0.443-0.58-0.69-0.828l-2.566-2.566l-3.33,3.33
		L30.925,16.556z M34.658,12.823c0.643,0.643,1.268,0.98,1.872,1.013s1.14-0.185,1.606-0.651c0.277-0.277,0.455-0.562,0.536-0.854
		c0.082-0.294,0.093-0.587,0.032-0.881s-0.182-0.579-0.361-0.858s-0.397-0.547-0.652-0.802l-2.566-2.566l-3.033,3.034L34.658,12.823
		z"/>
	<path fill="#FFFFFF" d="M41.743,13.034l3.161,3.161c0.332,0.332,0.609,0.677,0.832,1.034s0.367,0.721,0.436,1.092
		c0.066,0.371,0.038,0.743-0.086,1.115c-0.123,0.37-0.369,0.74-0.736,1.107c-0.509,0.509-1.082,0.796-1.719,0.859
		c-0.636,0.063-1.251-0.117-1.846-0.541l-0.021,0.021c0.305,0.389,0.487,0.755,0.547,1.098c0.061,0.343,0.037,0.666-0.068,0.971
		c-0.106,0.304-0.27,0.594-0.488,0.869s-0.453,0.538-0.7,0.785c-0.148,0.148-0.294,0.293-0.435,0.436
		c-0.143,0.141-0.268,0.281-0.377,0.418c-0.109,0.139-0.201,0.275-0.275,0.414s-0.119,0.271-0.133,0.397l-0.52-0.52
		c0.078-0.276,0.229-0.537,0.456-0.785c0.227-0.247,0.466-0.498,0.721-0.753s0.497-0.518,0.727-0.79
		c0.23-0.272,0.388-0.563,0.472-0.876c0.086-0.311,0.066-0.647-0.058-1.012c-0.124-0.365-0.408-0.77-0.854-1.215l-2.694-2.694
		l-3.447,3.447l-0.467-0.467L41.743,13.034z M41.182,19.919c0.275,0.275,0.564,0.498,0.869,0.668s0.611,0.268,0.924,0.297
		c0.31,0.028,0.625-0.019,0.943-0.139c0.317-0.119,0.629-0.332,0.934-0.637c0.281-0.281,0.471-0.578,0.566-0.885
		c0.096-0.309,0.119-0.613,0.068-0.918c-0.049-0.304-0.162-0.601-0.338-0.891c-0.177-0.29-0.393-0.562-0.647-0.816l-2.694-2.694
		l-3.32,3.319L41.182,19.919z"/>
	<path fill="#FFFFFF" d="M50.674,21.966l0.51,0.509l-4.582,10.564l-0.498-0.499l1.474-3.383l-3.628-3.627l-3.394,1.463l-0.499-0.498
		L50.674,21.966z M47.832,28.604l2.662-5.907l-0.021-0.021l-5.971,2.599L47.832,28.604z"/>
	<path fill="#FFFFFF" d="M54.715,26.006l0.584,0.583l-2.164,11.732l0.021,0.021l6.948-6.948l0.467,0.467l-7.574,7.574l-0.551-0.552
		l2.186-11.815l-0.021-0.021l-7.001,7l-0.467-0.467L54.715,26.006z"/>
	<path fill="#FFFFFF" d="M61.906,33.197l2.482,2.481c0.679,0.68,1.136,1.35,1.373,2.011c0.236,0.661,0.312,1.303,0.228,1.926
		c-0.085,0.622-0.298,1.214-0.642,1.776c-0.342,0.562-0.755,1.083-1.235,1.563c-0.538,0.538-1.106,0.97-1.708,1.295
		c-0.6,0.325-1.216,0.512-1.846,0.562c-0.629,0.049-1.262-0.049-1.898-0.297s-1.258-0.676-1.866-1.283l-2.461-2.461L61.906,33.197z
		 M57.24,42.87c0.354,0.354,0.762,0.654,1.229,0.902c0.466,0.248,0.974,0.387,1.522,0.42c0.547,0.031,1.129-0.08,1.744-0.336
		c0.615-0.254,1.252-0.71,1.91-1.367c0.516-0.516,0.906-1.01,1.172-1.48c0.264-0.469,0.439-0.913,0.524-1.331
		c0.085-0.417,0.092-0.806,0.021-1.167c-0.07-0.36-0.182-0.693-0.334-1.002c-0.152-0.307-0.331-0.588-0.535-0.842
		c-0.205-0.256-0.399-0.475-0.584-0.658l-1.94-1.941l-6.767,6.767L57.24,42.87z"/>
</g>
</svg>
