<?xml version="1.0" encoding="UTF-8" standalone="no"?>
<svg width="126px" height="126px" viewBox="0 0 126 126" version="1.1" xmlns="http://www.w3.org/2000/svg" xmlns:xlink="http://www.w3.org/1999/xlink" xmlns:sketch="http://www.bohemiancoding.com/sketch/ns">
    <!-- Generator: Sketch 3.2.1 (9977) - http://www.bohemiancoding.com/sketch -->
    <title>UI</title>
    <desc>Created with Sketch.</desc>
    <defs></defs>
    <g id="Page-1" stroke="none" stroke-width="1" fill="none" fill-rule="evenodd" sketch:type="MSPage">
        <g id="UI" sketch:type="MSArtboardGroup" fill="#FFFFFF">
            <path d="M63.2808333,125.560833 C28.9391667,125.560833 1,97.6225 1,63.2808333 C1,28.9391667 28.9391667,1 63.2808333,1 C97.6220833,1 125.56125,28.9391667 125.56125,63.2808333 C125.56125,97.6225 97.6220833,125.560833 63.2808333,125.560833 L63.2808333,125.560833 Z M63.2808333,2.25 C29.6283333,2.25 2.25,29.6283333 2.25,63.2808333 C2.25,96.9329167 29.6283333,124.310833 63.2808333,124.310833 C96.9329167,124.310833 124.31125,96.9329167 124.31125,63.2808333 C124.31125,29.6283333 96.9329167,2.25 63.2808333,2.25 L63.2808333,2.25 Z M87.0840746,68.4457916 C83.7366009,68.4457916 80.9355571,71.1958399 80.3881141,74.4406469 L56.5674211,74.4406469 C56.4573246,73.1758881 56.018965,72.0208881 55.1408948,70.9756469 L70.0154036,55.2453574 C71.1697281,56.3453092 72.7053378,56.9505021 74.3530702,56.9505021 C78.0298202,56.9505021 81.0500439,53.9258881 81.0500439,50.2960811 C81.0500439,46.5014671 78.0298202,43.5308881 74.3530702,43.5308881 C70.9495351,43.5308881 68.1495044,46.0063706 67.763829,49.4706951 L47.0025351,49.4706951 C46.4530658,46.0063706 43.6540483,43.5308881 40.3055615,43.5308881 C36.6264474,43.5308881 33.5521887,46.5014671 33.5521887,50.2960811 C33.5521887,53.9258881 36.6264474,56.9505021 40.3055615,56.9505021 C43.8171667,56.9505021 46.7249299,54.1450679 47.0025351,50.7354539 L67.6547457,50.7354539 L67.6547457,50.2960811 C67.6547457,51.7806951 68.2596009,53.1562258 69.083636,54.3102127 L54.2057501,70.0955504 C53.0548027,69.1056951 51.516829,68.6116118 49.9241448,68.6116118 C46.1936974,68.6116118 43.2845834,71.5254539 43.2845834,75.2660328 C43.2845834,78.9505504 46.1936974,82.0308881 49.9241448,82.0308881 C53.3290308,82.0308881 56.293193,79.3358881 56.5674211,75.8705504 L80.3881141,75.8705504 C80.7700746,79.3358881 83.570443,81.8660811 87.0840746,81.8660811 C90.8709211,81.8660811 93.8350834,78.9505504 93.8350834,75.1545855 C93.8350834,71.5254539 90.8709211,68.4457916 87.0840746,68.4457916 L87.0840746,68.4457916 Z M74.3530702,44.8513706 C77.3185834,44.8513706 79.786636,47.2147302 79.786636,50.2960811 C79.786636,53.1562258 77.3185834,55.5759846 74.3530702,55.5759846 C71.3878948,55.5759846 69.083636,53.1562258 69.083636,50.2960811 C69.083636,47.2147302 71.3878948,44.8513706 74.3530702,44.8513706 L74.3530702,44.8513706 Z M49.9241448,80.5999714 C46.9613334,80.5999714 44.4915922,78.2355986 44.4915922,75.2660328 C44.4915922,72.2961293 46.9613334,69.8753574 49.9241448,69.8753574 C52.8356229,69.8753574 55.2509913,72.2961293 55.2509913,75.2660328 C55.2509913,78.2355986 52.8356229,80.5999714 49.9241448,80.5999714 L49.9241448,80.5999714 Z M87.0840746,80.5999714 C84.1165351,80.5999714 81.7582413,78.2355986 81.7582413,75.1545855 C81.7582413,72.2961293 84.1165351,69.8753574 87.0840746,69.8753574 C90.1019343,69.8753574 92.5200044,72.2961293 92.5200044,75.1545855 C92.5200044,78.2355986 90.1019343,80.5999714 87.0840746,80.5999714 L87.0840746,80.5999714 Z" id="Interaction-2" sketch:type="MSShapeGroup"></path>
        </g>
    </g>
</svg>