<?xml version="1.0" encoding="UTF-8" standalone="no"?>
<svg width="126px" height="126px" viewBox="0 0 126 126" version="1.1" xmlns="http://www.w3.org/2000/svg" xmlns:xlink="http://www.w3.org/1999/xlink" xmlns:sketch="http://www.bohemiancoding.com/sketch/ns">
    <!-- Generator: Sketch 3.2.1 (9977) - http://www.bohemiancoding.com/sketch -->
    <title>UX</title>
    <desc>Created with Sketch.</desc>
    <defs></defs>
    <g id="Page-1" stroke="none" stroke-width="1" fill="none" fill-rule="evenodd" sketch:type="MSPage">
        <g id="UX" sketch:type="MSArtboardGroup">
            <path d="M63.2808333,125.560833 C28.9391667,125.560833 1,97.6225 1,63.2808333 C1,28.9391667 28.9391667,1 63.2808333,1 C97.6220833,1 125.56125,28.9391667 125.56125,63.2808333 C125.56125,97.6225 97.6220833,125.560833 63.2808333,125.560833 L63.2808333,125.560833 Z M63.2808333,2.25 C29.6283333,2.25 2.25,29.6283333 2.25,63.2808333 C2.25,96.9329167 29.6283333,124.310833 63.2808333,124.310833 C96.9329167,124.310833 124.31125,96.9329167 124.31125,63.2808333 C124.31125,29.6283333 96.9329167,2.25 63.2808333,2.25 L63.2808333,2.25 Z" fill="#FFFFFF" sketch:type="MSShapeGroup"></path>
            <g id="Imported-Layers" sketch:type="MSLayerGroup" transform="translate(42.000000, 30.000000)">
                <path d="M21.5127542,1.26043501 C26.9192754,1.26043501 32.0020212,3.34462599 35.8250127,7.12917772 C39.6480042,10.9137294 41.7533644,15.9455491 41.7533644,21.2975279 C41.7533644,26.050313 40.0415636,30.6591618 36.9331737,34.2750663 L36.8836144,34.3327851 L36.8426186,34.3966366 C30.1641356,44.8195756 28.896,51.6592573 28.6644195,54.2257613 L14.1983814,54.2257613 C14.0087076,51.637252 12.8318559,44.7943236 6.17705932,34.3901432 L6.13606356,34.325931 L6.08632203,34.2680318 C2.98175847,30.6533899 1.27196186,26.0470663 1.27196186,21.2975279 C1.27196186,15.9455491 3.37732203,10.9137294 7.20031356,7.12917772 C11.0234873,3.34462599 16.1062331,1.26043501 21.5127542,1.26043501 M21.5127542,0.178206897 C9.73038983,0.178206897 0.178741525,9.63363395 0.178741525,21.2975279 C0.178741525,26.5124244 2.08914407,31.2846897 5.25347034,34.9691353 C13.608589,48.0316286 13.1337669,55.3079894 13.1337669,55.3079894 L29.7095381,55.3079894 C29.7095381,55.3079894 29.3981525,48.0354164 37.765661,34.9763501 C40.9338136,31.2910027 42.8465847,26.5158515 42.8465847,21.2975279 C42.8465847,9.63363395 33.2951186,0.178206897 21.5127542,0.178206897" id="Fill-1" fill="#FFFFFF" sketch:type="MSShapeGroup"></path>
                <path d="M29.819589,56.9973475 L13.0568771,56.9973475 L13.0568771,63.3103448 L13.1075297,63.3103448 C13.1058898,63.330366 13.102428,63.3503873 13.102428,63.3704085 C13.102428,64.1607958 14.3016907,64.8660477 16.1782034,65.329061 L16.1782034,66.239756 L16.2099068,66.239756 C16.2089958,66.2525623 16.2068093,66.2648276 16.2068093,66.2774536 C16.2068093,67.1527958 18.5490339,67.8621963 21.4382331,67.8621963 C24.3274322,67.8621963 26.6696568,67.1527958 26.6696568,66.2774536 C26.6696568,66.2648276 26.6674703,66.2525623 26.6663771,66.239756 L26.6982627,66.239756 L26.6982627,65.329061 C28.5747754,64.8660477 29.7740381,64.1607958 29.7740381,63.3704085 C29.7740381,63.3503873 29.7705763,63.330366 29.7691186,63.3103448 L29.819589,63.3103448 L29.819589,56.9973475" id="Fill-2" fill="#FFFFFF" sketch:type="MSShapeGroup"></path>
                <path d="M18.8682542,55.3079894 L18.8682542,30.3886048 M23.9699492,55.3079894 L23.9699492,30.3886048 M17.7799534,26.9144721 C17.7799534,26.9144721 17.8909153,30.2489973 21.1379619,30.2387162 C21.1379619,30.2387162 24.9948432,30.5199151 25.2453729,26.9144721 M14.1358856,26.9144721 C14.1358856,26.9144721 14.2470297,30.2489973 17.4938941,30.2387162 C17.4938941,30.2387162 21.3507754,30.5199151 21.6013051,26.9144721 M21.4240212,26.9144721 C21.4240212,26.9144721 21.5351653,30.2489973 24.7820297,30.2387162 C24.7820297,30.2387162 28.638911,30.5199151 28.8894407,26.9144721" id="Stroke-3" stroke="#FFFFFF" stroke-width="1.2" sketch:type="MSShapeGroup"></path>
                <path d="M18.0469501,5.2476939 C18.0469501,5.2476939 8.87488732,6.1189759 6.11228591,15.6350715" id="Path-47" stroke="#FFFFFF" stroke-width="1.2" sketch:type="MSShapeGroup"></path>
            </g>
        </g>
    </g>
</svg>