<?xml version="1.0" encoding="utf-8"?>
<!-- Generator: Adobe Illustrator 16.0.4, SVG Export Plug-In . SVG Version: 6.00 Build 0)  -->
<!DOCTYPE svg PUBLIC "-//W3C//DTD SVG 1.1//EN" "http://www.w3.org/Graphics/SVG/1.1/DTD/svg11.dtd">
<svg version="1.1" id="Layer_1" xmlns="http://www.w3.org/2000/svg" xmlns:xlink="http://www.w3.org/1999/xlink" x="0px" y="0px"
	 width="113px" height="57px" viewBox="0 0 113 57" enable-background="new 0 0 113 57" xml:space="preserve">
<g>
	<g>
		<path fill="#FFFFFF" d="M56.381,0.582c-27.757,0-47.545,14.022-55.758,28.117c8.212,14.092,28.001,28.114,55.758,28.114
			c27.759,0,47.545-14.021,55.759-28.114C103.926,14.604,84.14,0.582,56.381,0.582z M56.381,53.952
			c-25.887,0-44.181-12.766-52.494-25.253C12.2,16.208,30.494,3.44,56.381,3.44c25.888,0,44.182,12.767,52.495,25.258
			C100.562,41.187,82.269,53.952,56.381,53.952z M56.381,10.589c-9.948,0-18.041,8.124-18.041,18.11
			c0,9.985,8.093,18.108,18.041,18.108c9.948,0,18.041-8.123,18.041-18.108C74.422,18.712,66.329,10.589,56.381,10.589z
			 M56.381,43.947c-8.378,0-15.192-6.842-15.192-15.249c0-8.409,6.814-15.25,15.192-15.25s15.194,6.841,15.194,15.25
			C71.575,37.105,64.759,43.947,56.381,43.947z M45.028,28.699h2.469c0.287-3.971,2.941-7.287,6.547-8.54v-2.592
			C49.065,18.919,45.337,23.352,45.028,28.699z"/>
	</g>
</g>
</svg>
