<?xml version="1.0" encoding="UTF-8" standalone="no"?>
<svg width="126px" height="126px" viewBox="0 0 126 126" version="1.1" xmlns="http://www.w3.org/2000/svg" xmlns:xlink="http://www.w3.org/1999/xlink" xmlns:sketch="http://www.bohemiancoding.com/sketch/ns">
    <!-- Generator: Sketch 3.2.1 (9977) - http://www.bohemiancoding.com/sketch -->
    <title>VSD</title>
    <desc>Created with Sketch.</desc>
    <defs></defs>
    <g id="Page-1" stroke="none" stroke-width="1" fill="none" fill-rule="evenodd" sketch:type="MSPage">
        <g id="VSD" sketch:type="MSArtboardGroup" fill="#FFFFFF">
            <path d="M63.2808333,125.560833 C28.9391667,125.560833 1,97.6225 1,63.2808333 C1,28.9391667 28.9391667,1 63.2808333,1 C97.6220833,1 125.56125,28.9391667 125.56125,63.2808333 C125.56125,97.6225 97.6220833,125.560833 63.2808333,125.560833 L63.2808333,125.560833 Z M63.2808333,2.25 C29.6283333,2.25 2.25,29.6283333 2.25,63.2808333 C2.25,96.9329167 29.6283333,124.310833 63.2808333,124.310833 C96.9329167,124.310833 124.31125,96.9329167 124.31125,63.2808333 C124.31125,29.6283333 96.9329167,2.25 63.2808333,2.25 L63.2808333,2.25 Z M82.2408843,64.6678591 L82.2683608,64.6678591 L82.0393895,64.2770588 C81.8863603,64.0012838 81.726462,63.7305099 81.5600762,63.4618793 L63.9380622,33.516 L46.3427616,63.5590435 C46.2088134,63.7769487 46.0794446,63.9962827 45.9561817,64.2195461 L45.6775999,64.7796694 L45.7012603,64.7107257 C44.4121518,67.2041318 43.6672318,69.9897452 43.6672318,72.9446815 C43.6672318,83.4216312 52.7619724,91.9160015 63.9827116,91.9160015 C75.2026877,91.9160015 84.2974283,83.4216312 84.2974283,72.9446815 C84.2974283,69.973313 83.5441127,67.1723391 82.2408843,64.6678591 L82.2408843,64.6678591 Z M63.9827116,90.668584 C53.5171961,90.668584 45.0040426,82.7175476 45.0040426,72.9446815 C45.0040426,70.2983846 45.6348586,67.7274613 46.8785544,65.3015701 L46.8896214,65.3054995 L47.1433979,64.7914577 C47.2571204,64.5849837 47.3780935,64.3817247 47.5143315,64.1573896 L63.940352,36.1108571 L80.4030078,64.085588 C80.543062,64.3109948 80.6777734,64.5374732 80.8166827,64.7846705 L81.0395481,65.2133363 C82.3145367,67.6642331 82.9621439,70.265163 82.9621439,72.9446815 C82.9621439,82.7175476 74.4470823,90.668584 63.9827116,90.668584 Z M50.0166063,76.7780255 L48.7679494,77.1320321 C50.5394242,82.8304296 55.7313487,86.7823712 61.7048287,87.5414669 L61.8803734,86.3715665 C56.3423205,85.6710551 51.6720689,82.0452567 50.0166063,76.7780255 Z" id="Fill-9" sketch:type="MSShapeGroup"></path>
        </g>
    </g>
</svg>